<?xml version="1.0" encoding="utf-8"?>
<!-- Generator: Adobe Illustrator 27.5.0, SVG Export Plug-In . SVG Version: 6.00 Build 0)  -->
<svg version="1.1" id="Layer_1" xmlns="http://www.w3.org/2000/svg" xmlns:xlink="http://www.w3.org/1999/xlink" x="0px" y="0px"
	 viewBox="0 0 408.386 160.606" style="enable-background:new 0 0 408.386 160.606;" xml:space="preserve">
<g>
	<g>
		<path style="fill:#4D4E50;" d="M188.552,147.663c-0.617-0.344-1.394-0.139-1.762,0.456c-0.503,0.466-3.065,1.061-5.55,1.288
			c-0.599,0.003-5.246,0.025-12.44,0.054l-4.44-12.089c-0.028-0.171-0.088-0.331-0.174-0.474l-3.239-8.819
			c-0.251-0.683-1.008-1.034-1.692-0.783c-0.683,0.251-1.034,1.008-0.783,1.691l2.664,7.253H72.983l2.664-7.253
			c0.251-0.683-0.1-1.441-0.783-1.691c-0.684-0.252-1.441,0.1-1.691,0.783l-3.24,8.819c-0.086,0.143-0.146,0.302-0.174,0.473
			l-4.495,12.239c-6.252-0.04-10.401-0.103-11.356-0.198c-4.731-0.471-5.585-2.975-5.632-3.123
			c-0.192-0.691-0.904-1.104-1.601-0.923c-0.704,0.183-1.127,0.903-0.944,1.607c0.047,0.179,1.217,4.395,7.916,5.061
			c2.009,0.2,17.055,0.266,36.166,0.266c36.643,0,88.228-0.244,91.494-0.26c0.037,0,0.074-0.002,0.111-0.005
			c2.437-0.217,6.67-0.84,7.642-2.582C189.415,148.82,189.187,148.018,188.552,147.663z M68.067,149.627l3.927-10.691h90.131
			l3.871,10.538C141.129,149.574,92.312,149.743,68.067,149.627z"/>
		<path style="fill:#18191B;" d="M89.814,152.46c-22.225,0-34.398-0.09-36.181-0.267c-6.801-0.676-8.005-4.994-8.053-5.178
			c-0.205-0.788,0.27-1.595,1.057-1.8c0.776-0.2,1.579,0.262,1.793,1.034c0.031,0.099,0.851,2.546,5.495,3.008
			c0.889,0.088,4.667,0.154,11.231,0.196l4.457-12.135c0.023-0.158,0.088-0.336,0.186-0.5l3.227-8.793
			c0.136-0.37,0.408-0.665,0.765-0.831c0.358-0.166,0.759-0.182,1.129-0.045c0.764,0.281,1.157,1.13,0.876,1.894l-2.586,7.041h87.7
			l-2.586-7.041c-0.281-0.764,0.113-1.613,0.876-1.894c0.37-0.136,0.771-0.12,1.129,0.046c0.358,0.166,0.629,0.461,0.765,0.831
			l3.239,8.819c0.086,0.138,0.151,0.316,0.182,0.503l4.395,11.956c6.692-0.028,11.157-0.049,12.174-0.054l0.155-0.001
			c2.645-0.242,4.969-0.84,5.43-1.233c0.421-0.656,1.277-0.872,1.961-0.491h0c0.344,0.192,0.593,0.507,0.701,0.886
			c0.107,0.379,0.061,0.778-0.131,1.122c-1.007,1.805-5.298,2.442-7.766,2.662c-0.042,0.003-0.082,0.005-0.123,0.006
			C179.104,152.211,126.886,152.46,89.814,152.46z M47.005,145.484c-0.096,0-0.192,0.012-0.289,0.037
			c-0.619,0.161-0.992,0.796-0.831,1.415c0.046,0.175,1.194,4.289,7.779,4.944c1.773,0.176,13.935,0.266,36.15,0.266
			c37.071,0,89.289-0.249,91.493-0.26c0.033,0,0.065-0.001,0.098-0.004c2.405-0.214,6.581-0.824,7.517-2.501
			c0.151-0.271,0.188-0.584,0.103-0.882c-0.084-0.298-0.28-0.545-0.551-0.697l0,0c-0.543-0.302-1.225-0.126-1.551,0.402
			c-0.008,0.012-0.017,0.023-0.027,0.033c-0.602,0.557-3.399,1.124-5.643,1.329l-0.169,0.001c-1.022,0.005-5.531,0.026-12.285,0.054
			c0,0,0,0-0.001,0c-0.066,0-0.125-0.041-0.148-0.103l-4.44-12.089c-0.032-0.177-0.083-0.317-0.161-0.447l-3.252-8.846
			c-0.107-0.291-0.321-0.522-0.602-0.653c-0.282-0.13-0.596-0.142-0.887-0.036c-0.601,0.221-0.91,0.888-0.689,1.489l2.664,7.254
			c0.018,0.049,0.011,0.103-0.019,0.145c-0.03,0.042-0.078,0.068-0.129,0.068H72.983c-0.052,0-0.1-0.025-0.13-0.068
			c-0.029-0.042-0.036-0.096-0.019-0.145l2.664-7.254c0.22-0.6-0.089-1.268-0.689-1.488c-0.291-0.108-0.606-0.095-0.887,0.036
			c-0.281,0.13-0.495,0.362-0.602,0.653l-3.239,8.82c-0.09,0.156-0.142,0.296-0.166,0.444l-4.503,12.268
			c-0.023,0.062-0.082,0.103-0.148,0.103c0,0-0.001,0-0.001,0c-6.642-0.042-10.467-0.109-11.371-0.198
			c-4.849-0.482-5.731-3.12-5.766-3.233C47.984,145.823,47.513,145.484,47.005,145.484z M89.119,149.824
			c-7.993,0-15.224-0.012-21.053-0.04c-0.051,0-0.1-0.026-0.129-0.068c-0.029-0.042-0.036-0.096-0.018-0.145l3.927-10.691
			c0.023-0.062,0.082-0.103,0.148-0.103h90.131c0.066,0,0.125,0.041,0.148,0.103l3.871,10.538c0.018,0.048,0.011,0.102-0.018,0.145
			c-0.029,0.042-0.078,0.068-0.129,0.068C146.101,149.712,113.956,149.824,89.119,149.824z M68.293,149.469
			c23.943,0.114,71.215-0.047,97.477-0.153l-3.755-10.223h-89.91L68.293,149.469z"/>
	</g>
	<g>
		<g>
			<g>
				<g>
					<g>
						<path style="fill:#E2E3E4;" d="M244.763,31.139c0.001,3.424-48.318,6.211-107.923,6.225
							c-59.605,0.014-107.925-2.751-107.926-6.176c-0.001-3.424,48.318-6.211,107.923-6.225
							C196.442,24.95,244.762,27.715,244.763,31.139z"/>
						<path style="fill:#B3B5B8;" d="M136.4,37.68c-28.67,0-55.605-0.638-75.892-1.799c-31.908-1.826-31.909-3.983-31.909-4.692
							c0-0.709-0.001-2.866,31.907-4.707c20.39-1.176,47.498-1.827,76.332-1.834c0.146,0,0.294,0,0.44,0
							c28.67,0,55.605,0.638,75.892,1.799c31.908,1.826,31.909,3.983,31.909,4.692c0,0.709,0.001,2.866-31.907,4.707
							c-20.39,1.176-47.499,1.827-76.332,1.834C136.694,37.68,136.546,37.68,136.4,37.68z M137.278,25.279c-0.148,0-0.293,0-0.441,0
							c-28.822,0.007-55.918,0.657-76.296,1.833c-30.434,1.755-31.312,3.844-31.312,4.076c0,0.232,0.879,2.32,31.314,4.062
							c20.274,1.16,47.2,1.798,75.856,1.798c0.148,0,0.293,0,0.441,0c28.821-0.007,55.917-0.658,76.295-1.833
							c30.434-1.756,31.312-3.844,31.312-4.076c0-0.232-0.879-2.32-31.314-4.062C192.86,25.917,165.934,25.279,137.278,25.279z"/>
					</g>
					<path style="fill:#5C5D5F;" d="M136.975,30.307c0.046-0.042,0.097-0.073,0.145-0.111l-4.912-0.351l-63.682-4.384l-13.401,1.018
						l81.668,6.772C136.163,32.345,136.125,31.088,136.975,30.307z"/>
					<path style="fill:#5C5D5F;" d="M136.042,31.423c0.195,0.271,0.353,0.586,0.411,0.916l70.702-5.895l-13.402-1.011l-60.174,4.17
						C134.544,29.982,135.453,30.606,136.042,31.423z"/>
					<g>
						<g>
							<path style="fill:#292B2C;" d="M136.42,37.202L136.42,37.202c-1.076,0-1.956-0.879-1.956-1.955l-0.002-8.328
								c0-1.075,0.88-1.956,1.955-1.956l0,0c1.075,0,1.956,0.88,1.956,1.955l0.002,8.328
								C138.375,36.322,137.495,37.202,136.42,37.202z"/>
							<path style="fill:#18191B;" d="M136.419,37.376c-1.174,0-2.129-0.955-2.129-2.128l-0.002-8.328
								c0-1.174,0.955-2.129,2.129-2.129c0,0,0,0,0.001,0c0.566,0,1.1,0.222,1.503,0.625c0.403,0.403,0.625,0.937,0.626,1.504
								l0.002,8.328c0,0.566-0.222,1.101-0.625,1.504C137.52,37.154,136.986,37.376,136.419,37.376L136.419,37.376
								C136.42,37.376,136.419,37.376,136.419,37.376z M136.418,25.137C136.417,25.137,136.417,25.137,136.418,25.137
								c-0.983,0-1.782,0.8-1.782,1.782l0.002,8.328c0,0.982,0.799,1.781,1.782,1.781c0,0,0,0,0.001,0l0,0
								c0.474,0,0.921-0.186,1.258-0.524c0.337-0.338,0.523-0.784,0.523-1.258l-0.002-8.328c0-0.474-0.186-0.921-0.524-1.258
								C137.338,25.323,136.891,25.137,136.418,25.137z"/>
						</g>
						<g>
							<path style="fill:#4D4E50;" d="M140.614,46.948l-8.383,0.002c-1.89,0-3.437-1.546-3.438-3.436l-0.001-4.861
								c-0.001-1.89,1.546-3.438,3.436-3.438l8.383-0.002c1.891,0,3.438,1.546,3.438,3.436l0.001,4.861
								C144.051,45.401,142.504,46.948,140.614,46.948z"/>
							<path style="fill:#18191B;" d="M132.229,47.093c-0.952,0-1.85-0.373-2.528-1.051c-0.678-0.678-1.052-1.576-1.052-2.528
								l-0.001-4.861c0-1.974,1.605-3.58,3.58-3.581l8.383-0.002c0,0,0.001,0,0.001,0c1.974,0,3.58,1.605,3.581,3.579l0.001,4.861
								c0,0.952-0.373,1.851-1.051,2.529c-0.678,0.678-1.576,1.052-2.529,1.052l-8.383,0.002
								C132.23,47.093,132.23,47.093,132.229,47.093z M140.612,35.356C140.611,35.356,140.611,35.356,140.612,35.356l-8.384,0.002
								c-1.816,0.001-3.294,1.479-3.293,3.295l0.001,4.861c0,0.876,0.344,1.702,0.968,2.326c0.624,0.624,1.45,0.967,2.325,0.967
								c0,0,0.001,0,0.001,0l8.383-0.002l0,0c0.876,0,1.702-0.344,2.326-0.968c0.624-0.624,0.967-1.45,0.967-2.326l-0.001-4.861
								C143.905,36.834,142.428,35.356,140.612,35.356z"/>
						</g>
						<path style="fill:#4D4E50;" d="M128.955,37.61c-0.106,0.33-0.164,0.68-0.164,1.044l0.001,4.861
							c0,1.89,1.548,3.437,3.438,3.436l8.383-0.002c1.89,0,3.437-1.548,3.436-3.438l-0.001-4.861c0-0.363-0.059-0.714-0.164-1.043
							L128.955,37.61z"/>
					</g>
					<path style="fill:#747477;" d="M139.824,30.531c-0.622,0.321-1.069,0.889-1.03,1.67c0.025,0.511,0.249,0.993,0.585,1.381
						l47.09,3.905l22.84-1.993L139.824,30.531z"/>
					<path style="fill:#747477;" d="M135.462,32.796c0.229-0.648,0.097-1.381-0.355-1.902c-0.284-0.327-0.647-0.532-1.042-0.643
						l-2.446,0.17l-74.947,5.387L73.97,37.31l61.328-4.17C135.362,33.031,135.42,32.917,135.462,32.796z"/>
				</g>
				<g>
					<path style="fill:#4D4E50;" d="M144.047,28.376l0-0.712c0-2.293-1.877-4.168-4.169-4.167l-6.921,0.002
						c-2.293,0-4.168,1.877-4.167,4.169l0,0.712L144.047,28.376z"/>
					<path style="fill:#18191B;" d="M128.789,28.553c-0.046,0-0.09-0.018-0.123-0.051c-0.033-0.032-0.051-0.076-0.051-0.123l0-0.712
						c0-1.155,0.452-2.244,1.275-3.067c0.822-0.823,1.911-1.276,3.067-1.276l6.921-0.002c0,0,0.001,0,0.001,0
						c1.155,0,2.243,0.453,3.066,1.275c0.823,0.822,1.276,1.911,1.276,3.066l0,0.712c0,0.096-0.078,0.174-0.174,0.174
						L128.789,28.553z M139.878,23.67c0,0-0.001,0-0.001,0l-6.921,0.002c-1.062,0-2.064,0.417-2.821,1.174
						c-0.757,0.757-1.173,1.759-1.173,2.822v0.539l14.91-0.004l0-0.539c0-1.062-0.417-2.064-1.174-2.82
						C141.942,24.086,140.94,23.67,139.878,23.67z"/>
				</g>
				<g>
					<path style="fill:#4D4E50;" d="M144.047,28.376l0-0.712c0-2.293-1.877-4.168-4.169-4.167l-6.921,0.002
						c-2.293,0-4.168,1.877-4.167,4.169l0,0.712L144.047,28.376z"/>
					<path style="fill:#18191B;" d="M128.789,28.553c-0.046,0-0.09-0.018-0.123-0.051c-0.033-0.032-0.051-0.076-0.051-0.123l0-0.712
						c0-1.155,0.452-2.244,1.275-3.067c0.822-0.823,1.911-1.276,3.067-1.276l6.921-0.002c0,0,0.001,0,0.001,0
						c1.155,0,2.243,0.453,3.066,1.275c0.823,0.822,1.276,1.911,1.276,3.066l0,0.712c0,0.096-0.078,0.174-0.174,0.174
						L128.789,28.553z M139.878,23.67c0,0-0.001,0-0.001,0l-6.921,0.002c-1.062,0-2.064,0.417-2.821,1.174
						c-0.757,0.757-1.173,1.759-1.173,2.822v0.539l14.91-0.004l0-0.539c0-1.062-0.417-2.064-1.174-2.82
						C141.942,24.086,140.94,23.67,139.878,23.67z"/>
				</g>
				<path style="fill:#4D4E50;" d="M134.122,24.372c-0.22,0.013-0.44,0.04-0.647,0.066c-0.603,0.077-1.206,0.208-1.778,0.415
					c-0.408,0.148-0.874,0.347-1.15,0.698c-0.243,0.31-0.164,0.669,0.068,0.963c0.497,0.629,1.479,0.421,2.121,0.185
					c0.72-0.264,1.571-0.742,1.96-1.433c0.125-0.223,0.165-0.446-0.001-0.618C134.553,24.499,134.343,24.419,134.122,24.372z"/>
				<path style="fill:#4D4E50;" d="M141.813,23.978c-0.049,0.052-0.095,0.107-0.145,0.157c-1.856,1.876-4.517,2.834-7.027,3.452
					c-1.5,0.37-3.03,0.625-4.569,0.792l13.975-0.003l0-0.712C144.046,26.069,143.137,24.678,141.813,23.978z"/>
				<g>
					<g>
						<path style="fill:#FFFFFF;" d="M34.92,30.902c0.002-0.004,0.005-0.012,0.007-0.017c-0.001,0.001-0.002,0.003-0.002,0.004
							C34.923,30.893,34.921,30.898,34.92,30.902z"/>
						<path style="fill:#FFFFFF;" d="M35.801,29.981c-0.324,0.003-0.636,0.095-0.924,0.243c-0.181,0.093-0.341,0.199-0.492,0.336
							c-0.153,0.139-0.283,0.327-0.299,0.537c-0.01,0.13,0.069,0.226,0.188,0.267c0.166,0.058,0.385-0.041,0.496-0.167
							c0.059-0.067,0.101-0.143,0.128-0.227c0.007-0.023,0.013-0.045,0.021-0.068c-0.018,0.045-0.016,0.021-0.001-0.005
							c0.002-0.003,0.004-0.006,0.006-0.008c0,0,0,0,0,0c0.004-0.01,0.009-0.021,0.013-0.031c0,0,0,0,0,0
							c-0.004,0.012-0.007,0.018-0.01,0.027c0.012-0.019,0.024-0.038,0.036-0.057c0.004-0.005,0.008-0.01,0.013-0.015
							c0.023-0.026,0.047-0.051,0.072-0.075c0.009-0.008,0.027-0.025,0.042-0.038c0.112-0.088,0.23-0.162,0.349-0.241l0.002-0.001
							c0.032-0.018,0.064-0.036,0.095-0.055c0.014-0.009,0.029-0.018,0.043-0.026c0.006-0.004,0.012-0.007,0.019-0.011
							c0.061-0.033,0.122-0.064,0.185-0.091c0.067-0.029,0.134-0.097,0.138-0.174C35.925,30.032,35.869,29.98,35.801,29.981z"/>
					</g>
					<path style="fill:#FFFFFF;" d="M37.917,29.713c-0.192,0.017-0.379,0.045-0.562,0.107c-0.183,0.062-0.353,0.146-0.519,0.243
						c-0.173,0.1-0.328,0.222-0.476,0.356c-0.059,0.054-0.116,0.111-0.168,0.171c-0.069,0.08-0.139,0.162-0.176,0.262
						c-0.022,0.06-0.03,0.127-0.036,0.191c-0.032,0.329,0.414,0.332,0.596,0.179c0.054-0.046,0.113-0.087,0.163-0.137
						c0.051-0.05,0.089-0.11,0.125-0.171c0.026-0.045,0.058-0.103,0.094-0.148c0.002-0.003,0.002-0.002,0.004-0.005
						c0.012-0.014,0.024-0.029,0.036-0.043c0.024-0.028,0.049-0.056,0.075-0.082c0.026-0.026,0.052-0.052,0.079-0.078
						c0.009-0.008,0.019-0.017,0.028-0.025c0.056-0.045,0.113-0.089,0.172-0.13c0.031-0.021,0.063-0.042,0.095-0.061
						c0.013-0.008,0.026-0.015,0.038-0.023c0.004-0.003,0.003-0.002,0.005-0.003c0.043-0.023,0.086-0.048,0.128-0.073
						c0.003-0.001,0.001,0,0.006-0.003c0.017-0.009,0.034-0.018,0.051-0.026c0.071-0.035,0.143-0.067,0.217-0.097
						c0.092-0.036,0.184-0.136,0.19-0.239C38.086,29.788,38.009,29.705,37.917,29.713z"/>
					<g>
						<path style="fill:#FFFFFF;" d="M42.178,28.978c-0.027-0.096-0.143-0.141-0.236-0.114c-0.246,0.074-0.499,0.12-0.744,0.196
							c-0.347,0.108-0.702,0.208-1.04,0.344c-0.663,0.268-1.386,0.618-1.843,1.187c-0.241,0.301-0.599,0.875-0.331,1.258
							c0.115,0.164,0.346,0.167,0.516,0.112c0.02-0.006,0.036-0.017,0.055-0.025c-0.005,0.013,0.021,0.002,0.082-0.036
							c0.001,0,0.002-0.002,0.003-0.002c0.056-0.032,0.108-0.071,0.153-0.115c0.009-0.009,0.021-0.013,0.03-0.022
							c0.059-0.063,0.107-0.143,0.141-0.224c0.002-0.005,0.005-0.008,0.007-0.013c-0.001,0.001-0.001,0.002-0.002,0.002
							c0.004-0.01,0.011-0.02,0.014-0.031c0.02-0.059,0.027-0.124,0.035-0.185c0.001-0.005,0.002-0.016,0.003-0.027
							c0.003-0.016,0.007-0.041,0.01-0.052c0.008-0.027,0.018-0.053,0.027-0.08c0.001-0.002,0.001-0.002,0.001-0.004
							c0.014-0.025,0.028-0.05,0.044-0.074c0.011-0.016,0.022-0.032,0.034-0.048c0.002-0.002,0.002-0.002,0.004-0.004
							c0.048-0.051,0.096-0.102,0.147-0.151c-0.006,0.004-0.01,0.007-0.016,0.011c0.012-0.007,0.023-0.018,0.034-0.028
							c0.012-0.011,0.02-0.017,0.022-0.017c0.009-0.008,0.018-0.015,0.027-0.022c0.063-0.05,0.126-0.099,0.19-0.145
							c0.131-0.094,0.268-0.181,0.407-0.264c0.024-0.014,0.146-0.081,0.074-0.043c-0.075,0.039,0.041-0.022,0.06-0.032
							c0.078-0.042,0.157-0.083,0.236-0.123c0.296-0.15,0.587-0.311,0.884-0.461c0.29-0.146,0.571-0.309,0.838-0.493
							C42.125,29.198,42.208,29.083,42.178,28.978z"/>
						<path style="fill:#FFFFFF;" d="M39.292,30.868c-0.001,0.001-0.002,0.002-0.003,0.003c0.029-0.02,0.044-0.035,0.04-0.034
							c-0.007,0.006-0.015,0.011-0.022,0.017C39.301,30.859,39.299,30.861,39.292,30.868z"/>
					</g>
					<path style="fill:#FFFFFF;" d="M44.143,29.074c-0.29,0.088-0.586,0.141-0.87,0.253c-0.315,0.124-0.612,0.284-0.899,0.465
						c-0.283,0.178-0.545,0.382-0.793,0.605c-0.244,0.219-0.581,0.511-0.56,0.868c0.014,0.241,0.253,0.328,0.461,0.223
						c0.204-0.103,0.359-0.226,0.496-0.41c0.002-0.003,0.003-0.004,0.005-0.007c0.001-0.001,0.001-0.001,0.001-0.002
						c0.022-0.026,0.043-0.053,0.066-0.079c0.045-0.053,0.092-0.104,0.139-0.155c0.093-0.098,0.192-0.187,0.29-0.28
						c0.006-0.005,0.004-0.005,0.006-0.006c0.004-0.003,0.004-0.003,0.012-0.01c0.028-0.023,0.056-0.047,0.085-0.069
						c0.057-0.046,0.115-0.091,0.174-0.134c0.229-0.17,0.471-0.325,0.715-0.47c0.194-0.115,0.451-0.281,0.708-0.368
						c0.107-0.036,0.215-0.168,0.201-0.284C44.367,29.103,44.251,29.041,44.143,29.074z"/>
					<path style="fill:#FFFFFF;" d="M46.763,29.058c-0.19,0.024-0.38,0.07-0.55,0.158c-0.207,0.108-0.399,0.237-0.563,0.404
						c-0.078,0.079-0.148,0.167-0.207,0.26c-0.081,0.127-0.165,0.287-0.126,0.442c0.033,0.129,0.146,0.204,0.276,0.208
						c0.187,0.005,0.36-0.124,0.461-0.271c0.049-0.071,0.072-0.15,0.101-0.228c0.019-0.035,0.041-0.069,0.064-0.102
						c0.041-0.048,0.084-0.094,0.131-0.136c0.072-0.056,0.147-0.106,0.225-0.155c0.023-0.015,0.044-0.032,0.066-0.048
						c0.004-0.003,0.015-0.01,0.024-0.016c0.045-0.022,0.091-0.043,0.138-0.062c0.116-0.046,0.225-0.173,0.214-0.303
						C47.005,29.075,46.877,29.044,46.763,29.058z"/>
					<path style="fill:#FFFFFF;" d="M48.811,29.172c-0.035-0.108-0.159-0.161-0.267-0.129c-0.296,0.088-0.575,0.242-0.787,0.469
						c-0.108,0.115-0.198,0.249-0.253,0.397c-0.023,0.063-0.028,0.166-0.011,0.232c0.025,0.098,0.101,0.162,0.196,0.188
						c0.094,0.026,0.193,0.016,0.282-0.023c0.049-0.022,0.074-0.043,0.113-0.066c-0.034,0.019-0.068,0.039-0.102,0.058
						c0.106-0.058,0.209-0.124,0.27-0.234c0.022-0.04,0.04-0.082,0.056-0.125c0.011-0.031,0.017-0.062,0.022-0.093
						c0.006-0.023,0.015-0.044,0.023-0.066c0.015-0.027,0.032-0.054,0.05-0.08c0.031-0.036,0.064-0.071,0.099-0.104
						c0.051-0.041,0.102-0.08,0.159-0.113l0.064-0.055c0.028-0.027,0.05-0.059,0.064-0.095
						C48.81,29.287,48.828,29.225,48.811,29.172z"/>
					<g>
						<path style="fill:#FFFFFF;" d="M51.93,30.164c-0.002,0.003-0.004,0.006-0.006,0.009C51.987,30.105,51.95,30.135,51.93,30.164z
							"/>
						<path style="fill:#FFFFFF;" d="M52.672,29.302c0.096-0.069,0.032-0.028,0.007-0.006c0,0-0.001,0.001-0.001,0.001
							C52.675,29.299,52.674,29.3,52.672,29.302z"/>
						<path style="fill:#FFFFFF;" d="M53.393,28.228c-0.463,0.162-0.897,0.395-1.292,0.686c-0.223,0.164-0.439,0.345-0.615,0.559
							c-0.112,0.135-0.2,0.261-0.269,0.422c-0.054,0.127-0.046,0.27-0.028,0.403c0.019,0.139,0.193,0.187,0.306,0.176
							c0.154-0.015,0.315-0.112,0.394-0.247c0.011-0.019,0.022-0.037,0.034-0.055c-0.007,0.007-0.009,0.01-0.018,0.02
							c0.057-0.059,0.103-0.127,0.148-0.194c0.054-0.079,0.108-0.157,0.161-0.236c-0.098,0.143,0.006-0.005,0.037-0.04
							c0.036-0.041,0.073-0.08,0.11-0.119c0.079-0.085,0.161-0.167,0.247-0.245c0.021-0.019,0.042-0.038,0.063-0.056
							c-0.002,0.002-0.002,0.002-0.005,0.004c0.004-0.003,0.007-0.006,0.01-0.008c0,0,0,0,0,0c0,0,0.001,0,0.001-0.001
							c0.045-0.034,0.088-0.073,0.133-0.108c0.088-0.069,0.177-0.136,0.265-0.205c0.081-0.063,0.164-0.124,0.249-0.182
							c0.041-0.028,0.083-0.056,0.125-0.081c0.015-0.009,0.03-0.018,0.045-0.026c0.004-0.002,0.008-0.004,0.015-0.008
							c0.122-0.066,0.267-0.196,0.225-0.353C53.693,28.175,53.513,28.186,53.393,28.228z"/>
					</g>
					<path style="fill:#FFFFFF;" d="M58.232,27.946c-0.378,0.033-0.728,0.103-1.087,0.255c-0.471,0.199-0.917,0.491-1.312,0.813
						c-0.798,0.651-1.61,1.505-1.785,2.562c-0.089,0.535,0.104,1.227,0.743,1.235c0.248,0.003,0.521-0.205,0.542-0.461
						c0.002-0.022,0.01-0.083-0.008,0.016c0.011-0.062,0.022-0.109,0.019-0.171c-0.003-0.058-0.017-0.1-0.035-0.154
						c-0.017-0.052-0.034-0.101-0.056-0.152c-0.009-0.02-0.019-0.039-0.028-0.06c-0.002-0.006-0.003-0.012-0.006-0.023
						c-0.016-0.069-0.039-0.136-0.054-0.206c-0.002-0.01-0.003-0.02-0.004-0.03c0.002-0.043-0.001-0.086,0.002-0.129
						c0.003-0.04,0.011-0.08,0.013-0.12c0-0.006,0-0.007,0-0.011c0.002-0.006,0.003-0.01,0.006-0.018
						c0.027-0.091,0.053-0.181,0.089-0.269c0.004-0.01,0.022-0.051,0.034-0.078c0.013-0.026,0.04-0.079,0.045-0.088
						c0.048-0.088,0.099-0.173,0.154-0.257c0.051-0.079,0.107-0.155,0.162-0.23c0.014-0.019,0.042-0.054,0.056-0.071
						c0.039-0.048,0.08-0.096,0.12-0.144c0.148-0.176,0.303-0.345,0.467-0.506c0.152-0.149,0.311-0.29,0.471-0.429
						c0.016-0.014,0.062-0.052,0.074-0.062c0.041-0.034,0.083-0.067,0.125-0.1c0.087-0.068,0.176-0.132,0.264-0.197
						c0.168-0.125,0.338-0.247,0.52-0.353c0.104-0.061,0.228-0.149,0.391-0.174C58.341,28.303,58.502,27.922,58.232,27.946z"/>
					<g>
						<path style="fill:#FFFFFF;" d="M60.621,28.331c-0.479,0.171-0.924,0.383-1.354,0.656c-0.502,0.318-0.98,0.704-1.321,1.196
							c-0.089,0.128-0.166,0.272-0.219,0.419c-0.069,0.19-0.069,0.369,0.041,0.542c0.178,0.279,0.655,0.055,0.772-0.169
							c0.044-0.085,0.091-0.163,0.122-0.255c0.018-0.052,0.031-0.105,0.049-0.157c0.009-0.027,0.021-0.053,0.031-0.079
							c0.003-0.004,0.004-0.007,0.007-0.013c0.031-0.056,0.064-0.109,0.1-0.162c0.021-0.031,0.048-0.06,0.067-0.092
							c-0.008,0.014-0.014,0.024-0.019,0.033c0.01-0.016,0.022-0.034,0.031-0.045c0.046-0.055,0.095-0.108,0.144-0.161
							c0.111-0.117,0.229-0.227,0.349-0.334c0.012-0.01,0.023-0.02,0.035-0.031c0.023-0.019,0.047-0.039,0.071-0.059
							c0.069-0.056,0.138-0.111,0.209-0.164c0.128-0.097,0.258-0.19,0.392-0.278c0.12-0.08,0.235-0.167,0.355-0.246
							c0.022-0.014,0.043-0.028,0.065-0.042c0.011-0.007,0.055-0.032,0.059-0.036c0.043-0.022,0.086-0.044,0.129-0.065
							c0.125-0.06,0.265-0.2,0.225-0.353C60.921,28.278,60.741,28.288,60.621,28.331z"/>
						<path style="fill:#FFFFFF;" d="M58.899,30.249C58.882,30.278,58.872,30.297,58.899,30.249L58.899,30.249z"/>
					</g>
					<path style="fill:#FFFFFF;" d="M62.212,28.995c-0.105-0.132-0.294-0.089-0.417-0.008c-0.079,0.052-0.152,0.114-0.22,0.179
						c-0.049,0.047-0.098,0.095-0.141,0.148c-0.119,0.149-0.218,0.311-0.27,0.496c-0.024,0.084-0.024,0.163,0.022,0.238
						c0.054,0.088,0.169,0.107,0.263,0.098c0.106-0.011,0.197-0.055,0.277-0.124c0.085-0.073,0.153-0.169,0.161-0.284
						c0.001-0.022,0.006-0.043,0.008-0.064c0.011-0.045,0.026-0.088,0.044-0.13c0.014-0.026,0.03-0.052,0.047-0.077
						c0.013-0.013,0.026-0.026,0.039-0.038c0.017-0.013,0.034-0.027,0.051-0.04c0.066-0.046,0.128-0.118,0.154-0.195
						C62.251,29.134,62.254,29.048,62.212,28.995z"/>
					<path style="fill:#FFFFFF;" d="M63.592,29.087c-0.041-0.059-0.122-0.092-0.192-0.091c-0.089,0.001-0.18,0.029-0.252,0.083
						c-0.024,0.021-0.049,0.042-0.073,0.062c-0.041,0.042-0.071,0.091-0.091,0.146c-0.002,0.004-0.004,0.009-0.006,0.013
						c-0.085,0.173-0.186,0.337-0.303,0.489c-0.028,0.038-0.053,0.079-0.07,0.125c-0.006,0.03-0.013,0.061-0.019,0.091
						c-0.005,0.06,0.01,0.115,0.043,0.164c0.025,0.038,0.058,0.064,0.1,0.078c0.093,0.043,0.187,0.036,0.283,0.005
						c0.121-0.039,0.242-0.12,0.306-0.234c0.127-0.227,0.229-0.468,0.293-0.72C63.631,29.226,63.638,29.152,63.592,29.087z"/>
				</g>
				<g>
					<g>
						<path style="fill:#FFFFFF;" d="M235.773,30.857c-0.002-0.004-0.005-0.012-0.007-0.018c0.001,0.001,0.002,0.003,0.003,0.004
							C235.77,30.847,235.771,30.852,235.773,30.857z"/>
						<path style="fill:#FFFFFF;" d="M234.891,29.935c0.324,0.003,0.636,0.095,0.924,0.242c0.181,0.093,0.341,0.199,0.492,0.336
							c0.153,0.139,0.283,0.327,0.299,0.537c0.01,0.13-0.069,0.226-0.187,0.267c-0.166,0.058-0.385-0.041-0.496-0.166
							c-0.059-0.067-0.101-0.143-0.128-0.227c-0.007-0.023-0.013-0.045-0.021-0.068c0.018,0.045,0.016,0.021,0.001-0.005
							c-0.002-0.003-0.004-0.006-0.005-0.009c0,0,0,0,0,0c-0.004-0.01-0.008-0.02-0.012-0.031l0,0
							c0.004,0.012,0.007,0.018,0.01,0.027c-0.011-0.019-0.024-0.038-0.036-0.057c-0.004-0.005-0.008-0.01-0.013-0.015
							c-0.023-0.026-0.047-0.051-0.072-0.075c-0.009-0.009-0.027-0.025-0.042-0.038c-0.112-0.088-0.23-0.162-0.349-0.241
							l-0.003-0.001c-0.032-0.018-0.064-0.036-0.095-0.055c-0.014-0.009-0.029-0.018-0.043-0.026
							c-0.006-0.004-0.012-0.007-0.019-0.011c-0.061-0.033-0.122-0.064-0.185-0.091c-0.067-0.029-0.134-0.097-0.138-0.174
							C234.767,29.986,234.823,29.935,234.891,29.935z"/>
					</g>
					<path style="fill:#FFFFFF;" d="M232.776,29.668c0.191,0.017,0.379,0.045,0.562,0.106c0.183,0.062,0.353,0.146,0.52,0.243
						c0.173,0.1,0.328,0.222,0.476,0.356c0.059,0.054,0.116,0.111,0.168,0.171c0.07,0.08,0.14,0.162,0.177,0.262
						c0.022,0.06,0.029,0.127,0.036,0.191c0.033,0.329-0.414,0.332-0.596,0.179c-0.055-0.046-0.113-0.087-0.164-0.137
						c-0.051-0.05-0.089-0.11-0.125-0.171c-0.026-0.045-0.058-0.103-0.094-0.148c-0.002-0.002-0.002-0.002-0.004-0.005
						c-0.012-0.014-0.024-0.029-0.036-0.043c-0.024-0.028-0.049-0.056-0.075-0.082c-0.026-0.027-0.052-0.053-0.079-0.078
						c-0.009-0.009-0.018-0.017-0.028-0.025c-0.056-0.045-0.113-0.089-0.172-0.13c-0.031-0.021-0.063-0.042-0.095-0.061
						c-0.013-0.008-0.026-0.015-0.038-0.023c-0.004-0.003-0.002-0.002-0.005-0.003c-0.043-0.023-0.086-0.048-0.128-0.073
						c-0.003-0.001-0.001,0-0.006-0.003c-0.017-0.009-0.034-0.018-0.051-0.026c-0.071-0.035-0.143-0.067-0.217-0.097
						c-0.092-0.036-0.184-0.136-0.19-0.239C232.607,29.743,232.683,29.66,232.776,29.668z"/>
					<g>
						<path style="fill:#FFFFFF;" d="M228.514,28.936c0.027-0.097,0.143-0.141,0.235-0.114c0.246,0.074,0.499,0.12,0.744,0.196
							c0.348,0.108,0.703,0.207,1.04,0.344c0.663,0.268,1.386,0.617,1.843,1.187c0.242,0.301,0.599,0.875,0.332,1.258
							c-0.115,0.164-0.346,0.167-0.517,0.112c-0.019-0.006-0.036-0.017-0.055-0.025c0.005,0.013-0.021,0.002-0.082-0.036
							c-0.001-0.001-0.002-0.002-0.003-0.002c-0.057-0.032-0.108-0.071-0.154-0.115c-0.009-0.008-0.021-0.013-0.03-0.022
							c-0.059-0.063-0.107-0.143-0.141-0.224c-0.002-0.005-0.005-0.008-0.007-0.013c0.001,0.001,0.001,0.001,0.002,0.002
							c-0.004-0.01-0.011-0.02-0.014-0.031c-0.02-0.059-0.027-0.123-0.035-0.185c-0.001-0.005-0.002-0.016-0.003-0.028
							c-0.003-0.016-0.007-0.041-0.01-0.052c-0.008-0.027-0.018-0.053-0.027-0.08c-0.001-0.002-0.001-0.002-0.001-0.004
							c-0.015-0.025-0.028-0.05-0.044-0.074c-0.011-0.016-0.022-0.032-0.034-0.048c-0.002-0.002-0.002-0.002-0.004-0.004
							c-0.048-0.051-0.096-0.102-0.147-0.151c0.006,0.004,0.01,0.007,0.016,0.011c-0.012-0.007-0.023-0.018-0.034-0.028
							c-0.012-0.011-0.02-0.017-0.022-0.017c-0.009-0.008-0.019-0.015-0.027-0.022c-0.063-0.05-0.126-0.098-0.191-0.145
							c-0.131-0.094-0.268-0.181-0.407-0.263c-0.024-0.014-0.146-0.081-0.074-0.043c0.074,0.039-0.041-0.022-0.06-0.032
							c-0.078-0.042-0.157-0.083-0.236-0.123c-0.296-0.15-0.587-0.311-0.885-0.461c-0.29-0.146-0.571-0.308-0.838-0.493
							C228.567,29.155,228.484,29.041,228.514,28.936z"/>
						<path style="fill:#FFFFFF;" d="M231.401,30.824c0.001,0.001,0.002,0.002,0.003,0.003c-0.029-0.02-0.044-0.035-0.04-0.034
							c0.007,0.006,0.014,0.011,0.022,0.017C231.391,30.815,231.394,30.817,231.401,30.824z"/>
					</g>
					<path style="fill:#FFFFFF;" d="M226.549,29.032c0.29,0.087,0.586,0.141,0.87,0.252c0.315,0.124,0.612,0.284,0.899,0.464
						c0.283,0.178,0.545,0.382,0.794,0.605c0.245,0.219,0.581,0.511,0.56,0.868c-0.014,0.241-0.253,0.328-0.461,0.223
						c-0.204-0.103-0.359-0.225-0.496-0.409c-0.002-0.003-0.003-0.004-0.005-0.007c-0.001-0.001-0.001-0.001-0.002-0.002
						c-0.022-0.026-0.043-0.053-0.066-0.079c-0.045-0.053-0.091-0.104-0.139-0.154c-0.093-0.098-0.192-0.187-0.29-0.28
						c-0.006-0.005-0.004-0.005-0.005-0.006c-0.004-0.003-0.004-0.003-0.012-0.01c-0.028-0.023-0.056-0.047-0.085-0.069
						c-0.057-0.046-0.115-0.091-0.174-0.134c-0.229-0.169-0.471-0.325-0.716-0.47c-0.194-0.115-0.451-0.28-0.708-0.367
						c-0.107-0.036-0.215-0.168-0.201-0.284C226.325,29.062,226.441,28.999,226.549,29.032z"/>
					<path style="fill:#FFFFFF;" d="M223.676,29.169c-0.011,0.129,0.098,0.257,0.214,0.302c0.047,0.018,0.093,0.039,0.138,0.062
						c0.009,0.006,0.02,0.013,0.024,0.016c0.022,0.016,0.043,0.033,0.066,0.048c0.077,0.049,0.153,0.1,0.225,0.155
						c0.047,0.042,0.09,0.088,0.131,0.136c0.023,0.033,0.045,0.067,0.064,0.103c0.03,0.078,0.053,0.157,0.101,0.228
						c0.101,0.147,0.274,0.276,0.461,0.271c0.13-0.004,0.243-0.078,0.276-0.208c0.039-0.155-0.045-0.314-0.126-0.442
						c-0.059-0.093-0.13-0.182-0.207-0.26c-0.165-0.167-0.356-0.297-0.563-0.404c-0.171-0.088-0.361-0.134-0.551-0.158
						C223.815,29.003,223.687,29.035,223.676,29.169z"/>
					<path style="fill:#FFFFFF;" d="M221.881,29.132c0.035-0.108,0.158-0.161,0.267-0.129c0.296,0.088,0.574,0.241,0.787,0.469
						c0.107,0.115,0.199,0.248,0.253,0.397c0.023,0.063,0.028,0.166,0.012,0.232c-0.025,0.098-0.101,0.163-0.196,0.189
						c-0.094,0.026-0.193,0.016-0.282-0.023c-0.049-0.021-0.073-0.043-0.113-0.066c0.034,0.019,0.068,0.039,0.102,0.058
						c-0.106-0.058-0.209-0.124-0.27-0.234c-0.022-0.04-0.04-0.082-0.056-0.125c-0.011-0.031-0.017-0.062-0.022-0.093
						c-0.006-0.022-0.014-0.044-0.023-0.066c-0.015-0.027-0.032-0.054-0.05-0.08c-0.031-0.036-0.064-0.071-0.099-0.104
						c-0.051-0.041-0.102-0.08-0.159-0.113l-0.064-0.055c-0.028-0.027-0.05-0.059-0.064-0.095
						C221.882,29.247,221.863,29.185,221.881,29.132z"/>
					<g>
						<path style="fill:#FFFFFF;" d="M218.762,30.126c0.002,0.003,0.004,0.006,0.006,0.009
							C218.705,30.067,218.742,30.096,218.762,30.126z"/>
						<path style="fill:#FFFFFF;" d="M218.02,29.264c-0.096-0.069-0.032-0.028-0.007-0.006c0,0,0.001,0.001,0.001,0.001
							C218.016,29.261,218.018,29.263,218.02,29.264z"/>
						<path style="fill:#FFFFFF;" d="M217.298,28.191c0.463,0.162,0.897,0.395,1.293,0.685c0.223,0.164,0.438,0.345,0.615,0.559
							c0.111,0.135,0.201,0.26,0.269,0.422c0.054,0.127,0.046,0.27,0.028,0.403c-0.019,0.139-0.193,0.187-0.306,0.176
							c-0.154-0.015-0.315-0.111-0.394-0.247c-0.011-0.019-0.023-0.037-0.035-0.055c0.007,0.007,0.009,0.01,0.018,0.02
							c-0.057-0.059-0.103-0.127-0.148-0.194c-0.054-0.079-0.108-0.157-0.162-0.236c0.098,0.143-0.006-0.005-0.037-0.04
							c-0.036-0.041-0.073-0.08-0.11-0.119c-0.079-0.085-0.161-0.167-0.247-0.245c-0.021-0.019-0.042-0.038-0.063-0.056
							c0.002,0.002,0.002,0.002,0.005,0.004c-0.003-0.002-0.007-0.006-0.01-0.008c0,0,0,0,0,0c0,0-0.001-0.001-0.001-0.001
							c-0.046-0.034-0.088-0.073-0.133-0.108c-0.088-0.069-0.177-0.136-0.266-0.204c-0.081-0.063-0.164-0.124-0.249-0.182
							c-0.041-0.028-0.082-0.056-0.125-0.081c-0.015-0.009-0.03-0.017-0.045-0.026c-0.004-0.002-0.008-0.004-0.015-0.008
							c-0.122-0.066-0.267-0.196-0.225-0.353C216.999,28.138,217.179,28.149,217.298,28.191z"/>
					</g>
					<path style="fill:#FFFFFF;" d="M212.459,27.91c0.379,0.033,0.728,0.103,1.088,0.254c0.471,0.198,0.917,0.49,1.312,0.812
						c0.798,0.651,1.61,1.505,1.786,2.561c0.089,0.535-0.103,1.227-0.742,1.236c-0.248,0.003-0.521-0.205-0.542-0.461
						c-0.002-0.022-0.01-0.083,0.008,0.016c-0.011-0.062-0.022-0.109-0.019-0.171c0.003-0.059,0.017-0.1,0.035-0.154
						c0.017-0.052,0.034-0.101,0.056-0.152c0.009-0.02,0.019-0.04,0.028-0.059c0.001-0.006,0.003-0.013,0.006-0.023
						c0.016-0.069,0.039-0.136,0.054-0.206c0.002-0.01,0.003-0.02,0.004-0.03c-0.002-0.043,0.001-0.086-0.002-0.129
						c-0.003-0.04-0.011-0.08-0.013-0.12c0-0.006,0-0.007,0-0.011c-0.002-0.006-0.003-0.01-0.006-0.019
						c-0.027-0.091-0.053-0.181-0.089-0.269c-0.004-0.01-0.022-0.051-0.033-0.078c-0.013-0.026-0.04-0.079-0.045-0.088
						c-0.048-0.088-0.099-0.173-0.154-0.257c-0.051-0.079-0.107-0.154-0.163-0.23c-0.014-0.019-0.042-0.054-0.055-0.071
						c-0.04-0.048-0.08-0.096-0.12-0.144c-0.148-0.176-0.303-0.345-0.467-0.506c-0.152-0.149-0.311-0.289-0.471-0.429
						c-0.016-0.013-0.062-0.052-0.074-0.062c-0.041-0.034-0.083-0.067-0.125-0.1c-0.087-0.068-0.176-0.132-0.265-0.197
						c-0.169-0.125-0.339-0.246-0.52-0.352c-0.105-0.061-0.228-0.149-0.391-0.174C212.35,28.268,212.189,27.887,212.459,27.91z"/>
					<g>
						<path style="fill:#FFFFFF;" d="M210.07,28.297c0.479,0.171,0.924,0.383,1.354,0.655c0.502,0.318,0.981,0.703,1.322,1.195
							c0.089,0.128,0.166,0.272,0.219,0.419c0.069,0.19,0.069,0.369-0.041,0.542c-0.178,0.279-0.656,0.055-0.772-0.169
							c-0.044-0.085-0.091-0.163-0.123-0.255c-0.018-0.052-0.031-0.105-0.049-0.157c-0.01-0.027-0.021-0.053-0.032-0.079
							c-0.003-0.004-0.004-0.007-0.007-0.013c-0.031-0.056-0.064-0.109-0.1-0.162c-0.021-0.031-0.048-0.06-0.066-0.092
							c0.008,0.014,0.014,0.024,0.018,0.033c-0.01-0.016-0.022-0.034-0.031-0.045c-0.046-0.055-0.094-0.108-0.144-0.16
							c-0.111-0.117-0.229-0.227-0.349-0.333c-0.012-0.01-0.023-0.021-0.035-0.031c-0.023-0.02-0.047-0.039-0.071-0.059
							c-0.069-0.056-0.138-0.111-0.209-0.164c-0.128-0.097-0.258-0.19-0.392-0.278c-0.12-0.08-0.235-0.167-0.355-0.246
							c-0.022-0.014-0.044-0.029-0.066-0.042c-0.011-0.007-0.055-0.032-0.059-0.035c-0.043-0.022-0.085-0.044-0.129-0.065
							c-0.125-0.06-0.265-0.2-0.225-0.353C209.77,28.244,209.951,28.254,210.07,28.297z"/>
						<path style="fill:#FFFFFF;" d="M211.793,30.214C211.811,30.243,211.821,30.262,211.793,30.214L211.793,30.214z"/>
					</g>
					<path style="fill:#FFFFFF;" d="M208.48,28.962c0.105-0.132,0.294-0.089,0.416-0.008c0.079,0.052,0.152,0.114,0.22,0.179
						c0.049,0.047,0.098,0.095,0.141,0.148c0.119,0.149,0.218,0.311,0.271,0.495c0.024,0.084,0.024,0.163-0.022,0.238
						c-0.054,0.089-0.169,0.107-0.263,0.098c-0.106-0.01-0.196-0.054-0.277-0.124c-0.085-0.073-0.153-0.168-0.161-0.284
						c-0.001-0.022-0.006-0.043-0.009-0.064c-0.011-0.045-0.026-0.088-0.044-0.131c-0.014-0.026-0.03-0.052-0.047-0.077
						c-0.013-0.013-0.026-0.026-0.039-0.038c-0.017-0.013-0.034-0.027-0.051-0.04c-0.066-0.046-0.128-0.118-0.154-0.195
						C208.441,29.101,208.437,29.014,208.48,28.962z"/>
					<path style="fill:#FFFFFF;" d="M207.1,29.054c0.041-0.059,0.122-0.092,0.192-0.091c0.089,0.001,0.18,0.029,0.252,0.083
						c0.024,0.021,0.048,0.042,0.073,0.063c0.041,0.042,0.071,0.091,0.091,0.146c0.002,0.005,0.004,0.009,0.006,0.013
						c0.085,0.173,0.186,0.337,0.303,0.489c0.029,0.038,0.053,0.079,0.07,0.125c0.006,0.03,0.013,0.061,0.019,0.091
						c0.005,0.06-0.01,0.115-0.043,0.164c-0.025,0.038-0.059,0.064-0.1,0.078c-0.093,0.043-0.187,0.036-0.283,0.005
						c-0.121-0.039-0.242-0.12-0.306-0.234c-0.127-0.227-0.23-0.468-0.293-0.72C207.061,29.194,207.054,29.119,207.1,29.054z"/>
				</g>
				<path style="fill:#B3B5B8;" d="M136.553,35.53c-19.165,0-37.171-0.431-50.732-1.216c-21.423-1.239-21.423-2.716-21.423-3.272
					c0-0.556,0-2.033,21.422-3.282c13.628-0.795,31.747-1.234,51.018-1.239c0.099,0,0.198,0,0.297,0
					c19.16,0,37.163,0.431,50.722,1.215c21.423,1.239,21.423,2.716,21.423,3.272l0,0l0,0c0,0.556,0.001,2.033-21.421,3.282
					c-13.628,0.794-31.747,1.234-51.018,1.239C136.744,35.53,136.648,35.53,136.553,35.53z M65.036,31.042
					c0.174,0.293,2.066,1.582,21.415,2.676c13.478,0.762,31.262,1.181,50.103,1.181c0.096,0,0.19,0,0.286,0
					c18.947-0.004,36.841-0.432,50.387-1.204c19.349-1.103,21.241-2.392,21.414-2.686c-0.174-0.293-2.066-1.582-21.416-2.676
					c-13.476-0.762-31.257-1.181-50.093-1.181c-0.099,0-0.196,0-0.295,0c-18.947,0.004-36.841,0.432-50.387,1.204
					C67.102,29.459,65.21,30.749,65.036,31.042z"/>
			</g>
			<g>
				<path style="fill:#C83F36;" d="M170.756,40.501c0,0-40.167-3.494-65.065,0c-17.583,2.468-28.82,8.285-31.677,18.387
					c0,0-6.832,0.969-13.121,5.425c-6.288,4.456-22.656,28.655-22.656,28.655s-26.372,6.228-31.4,17.884
					c0,0-2.514,4.843,3.143,10.135c5.657,5.292,22.415,11.734,35.563,13.699c0,0,10.081,2.698,24.656,2.331h83.586
					c0,0,22.396,0.64,33.575-6.306c11.179-6.946,21.522-30.851,47.777-35.24c26.255-4.39,85.081-10.064,85.081-10.064l32.902-2.159
					c0,0,4.355,0.613,5.025-5.362c0.67-5.975-6.149-5.054-11.539-5.671c-5.39-0.618-107.757-5.716-107.757-5.716
					s-25.216-5.287-34.216-13.247C195.634,45.291,187.032,42.542,170.756,40.501z"/>
				<path style="fill:#810913;" d="M67.5,137.209c-12.982,0-21.903-2.345-21.998-2.371c-13.271-1.982-29.929-8.402-35.63-13.736
					c-5.679-5.312-3.201-10.273-3.175-10.323c4.881-11.315,30.031-17.606,31.444-17.951c0.847-1.247,16.561-24.322,22.662-28.645
					c5.832-4.132,12.209-5.293,13.088-5.437c2.787-9.643,13.478-15.834,31.779-18.403c24.632-3.457,64.7-0.035,65.101-0.001
					c0.002,0,0.004,0,0.006,0c17.203,2.157,25.456,5.265,33.962,12.789c8.865,7.842,33.892,13.159,34.143,13.211
					c0.999,0.048,102.409,5.102,107.742,5.714c0.972,0.111,2.007,0.174,3.008,0.234c3.273,0.196,6.365,0.382,7.85,2.147
					c0.718,0.853,0.986,1.986,0.82,3.465c-0.239,2.132-0.966,3.682-2.16,4.609c-1.362,1.057-2.843,0.916-3.027,0.894l-32.887,2.158
					c-0.584,0.056-59.116,5.724-85.065,10.062c-17.732,2.965-28.176,14.85-36.568,24.4c-4.039,4.597-7.527,8.566-11.153,10.819
					c-11.091,6.891-33.438,6.336-33.663,6.33H70.199C69.283,137.198,68.381,137.209,67.5,137.209z M133.555,39.115
					c-9.635,0-19.602,0.385-27.843,1.542c-18.227,2.558-28.841,8.706-31.547,18.274c-0.017,0.06-0.068,0.105-0.13,0.114
					c-0.068,0.01-6.869,1.017-13.052,5.398c-6.193,4.388-22.453,28.373-22.617,28.615c-0.022,0.033-0.056,0.056-0.095,0.065
					c-0.263,0.062-26.352,6.344-31.291,17.793c-0.029,0.057-2.391,4.815,3.106,9.957c5.663,5.299,22.242,11.681,35.479,13.658
					c0.118,0.03,10.249,2.692,24.629,2.33h83.589c0.228,0.007,22.481,0.559,33.492-6.282c3.586-2.228,7.059-6.181,11.082-10.759
					c8.425-9.588,18.91-21.52,36.753-24.503c25.96-4.34,84.504-10.008,85.092-10.065l32.907-2.16c0.011-0.001,0.022,0,0.032,0.001
					c0.015,0.002,1.494,0.192,2.811-0.832c1.122-0.872,1.807-2.35,2.035-4.391c0.156-1.388-0.089-2.444-0.748-3.227
					c-1.398-1.661-4.424-1.843-7.628-2.035c-1.005-0.06-2.044-0.123-3.024-0.235c-5.323-0.61-106.723-5.664-107.747-5.715
					c-0.277-0.056-25.385-5.39-34.312-13.287c-8.451-7.475-16.662-10.564-33.79-12.712
					C170.361,40.625,152.617,39.115,133.555,39.115z"/>
			</g>
			<path style="fill:#FFFFFF;" d="M136.702,131.646c9.568-8.493,19.695-16.336,30.083-23.796
				c10.677-7.668,21.719-14.916,32.898-21.828c11.269-6.968,22.829-13.487,34.789-19.198c0.627-0.299,1.256-0.596,1.886-0.891
				c-2.395-0.568-6.28-1.549-10.607-2.877c-0.395,0.185-0.791,0.368-1.186,0.554c-12.724,6.011-25.017,12.911-36.957,20.351
				c-11.851,7.384-23.36,15.307-34.639,23.536c-11.454,8.356-22.53,17.136-33.068,26.628c-1.063,0.958-2.118,1.925-3.172,2.893
				h14.102C132.761,135.198,134.719,133.407,136.702,131.646z"/>
			<g>
				<g>
					<path style="fill:#FFFFFF;" d="M259.193,85.749c0,0-40.528,1.575-48.833,9.869c-4.995,4.989-18.421,18.719-41.048,21.049
						c-22.627,2.33-141.734,0.499-158.39-2.832c-1.75-0.35-3.254-0.823-4.551-1.388c-0.293,1.854-0.068,5.102,3.608,8.541
						c5.657,5.292,22.415,11.734,35.563,13.699c0,0,10.081,2.698,24.656,2.331h83.586c0,0,22.396,0.64,33.575-6.306
						c11.179-6.946,21.522-30.851,47.777-35.24c26.255-4.39,85.081-10.064,85.081-10.064l32.902-2.159c0,0,4.155,0.581,4.971-4.963
						L259.193,85.749z"/>
					<path style="fill:#97999C;" d="M67.5,137.209c-12.982,0-21.903-2.345-21.998-2.371c-13.271-1.981-29.928-8.401-35.63-13.735
						c-3.811-3.565-3.927-6.969-3.656-8.681l0.032-0.202l0.187,0.082c1.335,0.582,2.855,1.046,4.519,1.378
						c15.938,3.187,134.325,5.302,158.343,2.83c22.233-2.289,35.666-15.718,40.723-20.774l0.23-0.23
						c8.251-8.241,47.252-9.85,48.936-9.915l99.092-7.479l-0.029,0.196c-0.802,5.447-4.827,5.13-5.131,5.098l-32.888,2.158
						c-0.584,0.056-59.116,5.724-85.065,10.062c-17.732,2.965-28.176,14.85-36.568,24.4c-4.039,4.597-7.527,8.566-11.153,10.819
						c-11.091,6.891-33.438,6.336-33.663,6.33H70.199C69.283,137.198,68.381,137.209,67.5,137.209z M6.498,112.673
						c-0.262,2.017,0.185,5.015,3.589,8.199c5.663,5.298,22.242,11.68,35.479,13.658c0.118,0.03,10.247,2.691,24.629,2.33h83.589
						c0.228,0.007,22.481,0.559,33.492-6.282c3.586-2.228,7.059-6.181,11.082-10.759c8.425-9.588,18.909-21.52,36.753-24.503
						c25.96-4.34,84.504-10.008,85.092-10.065l32.923-2.16l0.016,0.002c0.161,0.022,3.916,0.476,4.762-4.634l-98.706,7.449
						c-0.405,0.016-40.561,1.667-48.727,9.823l-0.23,0.23c-5.079,5.077-18.569,18.564-40.913,20.864
						c-11.975,1.233-49.539,1.244-81.453,0.708c-29.851-0.502-67.925-1.73-76.984-3.541C9.284,113.668,7.807,113.226,6.498,112.673z
						"/>
				</g>
			</g>
			<g>
				<path style="fill:#4D4E50;" d="M50.121,127.158c0,0-2.197-2.292-3.725-2.483c-1.528-0.191-17.191-0.669-17.191-0.669
					s-1.719-0.191-1.624,0.669c0.096,0.86,10.124,5.826,15.663,7.068c0,0,4.052,0.735,5.771,0.353
					C50.736,131.713,54.61,131.169,50.121,127.158z"/>
				<path style="fill:#18191B;" d="M47.702,132.314c-1.881,0-4.345-0.442-4.476-0.466c-5.116-1.146-15.634-6.11-15.751-7.162
					c-0.021-0.194,0.033-0.358,0.163-0.488c0.423-0.422,1.533-0.305,1.58-0.3c0.631,0.019,15.677,0.479,17.193,0.669
					c1.535,0.192,3.66,2.381,3.786,2.513c1.629,1.456,2.31,2.581,2.082,3.439c-0.279,1.051-1.885,1.393-2.947,1.619l-0.292,0.063
					C48.674,132.282,48.209,132.314,47.702,132.314z M28.831,124.095c-0.365,0-0.836,0.05-1.041,0.256
					c-0.082,0.082-0.115,0.184-0.101,0.311c0.085,0.761,9.893,5.7,15.579,6.974c0.036,0.007,4.046,0.727,5.725,0.353l0.294-0.063
					c1.011-0.215,2.538-0.541,2.784-1.464c0.202-0.761-0.478-1.846-2.021-3.225c-0.002-0.002-0.004-0.004-0.006-0.006
					c-0.022-0.022-2.188-2.267-3.66-2.451c-1.505-0.188-17.025-0.663-17.181-0.668C29.114,124.104,28.982,124.095,28.831,124.095z"
					/>
			</g>
			<g>
				<g>
					<path style="fill:#18191B;" d="M43.245,131.85c-0.008,0-0.016-0.001-0.024-0.002c-5.112-1.146-15.63-6.109-15.747-7.161
						c-0.021-0.194,0.033-0.358,0.163-0.488c0.423-0.422,1.531-0.305,1.58-0.3c-0.003-0.008,0.855,0.026,2.204,0.069
						c0.018,0,0.036,0.006,0.051,0.015c3.005,1.764,9.719,4.847,13.996,5.806c0.036,0.007,4.047,0.726,5.724,0.353l0.284-0.061
						c0.217-0.046,0.456-0.097,0.699-0.157c0.057-0.015,0.116,0.021,0.131,0.079c0.014,0.058-0.021,0.117-0.079,0.131
						c-0.246,0.06-0.486,0.111-0.706,0.158l-0.282,0.061c-1.721,0.383-5.648-0.322-5.814-0.352
						c-4.292-0.962-11.01-4.044-14.039-5.818c-1.33-0.042-2.185-0.068-2.185-0.068c-0.301-0.033-1.122-0.053-1.412,0.237
						c-0.082,0.082-0.115,0.184-0.101,0.311c0.085,0.761,9.893,5.7,15.579,6.974c0.058,0.013,0.095,0.071,0.082,0.129
						C43.339,131.816,43.294,131.85,43.245,131.85z"/>
				</g>
				<g>
					<path style="fill:#4D4E50;" d="M50.121,127.158c0,0-2.197-2.292-3.725-2.483c-1.169-0.146-10.604-0.46-14.979-0.599
						c3.087,1.812,9.839,4.88,14.027,5.818c0,0,4.052,0.735,5.772,0.353c0.285-0.063,0.63-0.132,0.986-0.219
						C52.123,129.348,51.542,128.427,50.121,127.158z"/>
					<path style="fill:#18191B;" d="M49.901,130.465c-1.881,0-4.344-0.442-4.475-0.466c-4.303-0.964-11.045-4.06-14.063-5.831
						c-0.042-0.025-0.063-0.075-0.049-0.123c0.014-0.047,0.061-0.072,0.107-0.078c4.111,0.131,13.8,0.452,14.989,0.6
						c1.535,0.192,3.66,2.381,3.786,2.513c1.33,1.189,2.021,2.15,2.113,2.936c0.006,0.054-0.029,0.104-0.082,0.117
						c-0.246,0.06-0.486,0.111-0.706,0.158l-0.283,0.061C50.874,130.433,50.408,130.465,49.901,130.465z M31.845,124.197
						c3.159,1.79,9.515,4.67,13.623,5.591c0.036,0.007,4.047,0.726,5.724,0.353l0.284-0.061c0.189-0.04,0.393-0.084,0.604-0.134
						c-0.13-0.708-0.813-1.619-2.031-2.708c-0.002-0.002-0.004-0.004-0.006-0.006c-0.022-0.022-2.188-2.267-3.66-2.451
						C45.243,124.639,36.161,124.335,31.845,124.197z"/>
				</g>
			</g>
			<g>
				<g>
					<path style="fill:#FFFFFF;" d="M80.916,61.38c7.944,0.161,138.038,0,138.038,0l0.292-0.501
						c-5.693-2.085-11.271-4.672-14.613-7.628c-9-7.96-17.602-10.71-33.878-12.75c0,0-40.167-3.494-65.065,0
						c-17.583,2.468-28.82,8.285-31.677,18.387C74.014,58.888,72.973,61.219,80.916,61.38z"/>
					<path style="fill:#97999C;" d="M120.219,61.609c-20.457,0-36.674-0.018-39.306-0.071c-4.849-0.098-6.434-1.014-6.91-1.764
						c-0.323-0.51-0.141-0.932-0.133-0.95c2.735-9.677,13.436-15.902,31.799-18.479c24.632-3.457,64.7-0.035,65.101-0.001
						c17.209,2.157,25.462,5.265,33.968,12.79c2.899,2.564,7.799,5.12,14.562,7.597l0.177,0.065l-0.432,0.742h-0.091
						C218.09,61.539,160.813,61.609,120.219,61.609z M133.556,39.115c-9.635,0-19.603,0.385-27.843,1.542
						c-18.228,2.558-28.841,8.706-31.547,18.274c-0.012,0.032-0.128,0.319,0.111,0.685c0.362,0.557,1.708,1.506,6.643,1.606l0,0
						c7.764,0.157,133.886,0.005,137.944,0l0.151-0.26c-6.71-2.471-11.583-5.025-14.486-7.593
						c-8.451-7.475-16.662-10.564-33.792-12.712C170.474,40.635,152.679,39.115,133.556,39.115z"/>
				</g>
				<g>
					<path style="fill:#4D4E50;" d="M43.775,94.87c2.145-0.083,4.874-8.999,18.727-23.124c2.298-2.343,4.334-6.036,0.307-7.659
						c-0.341-0.137-0.691-0.256-1.045-0.364c-0.291,0.19-0.581,0.385-0.87,0.59c-6.288,4.456-22.656,28.655-22.656,28.655
						s-0.332,0.078-0.924,0.233C38.06,93.504,41.747,94.948,43.775,94.87z"/>
					<path style="fill:#18191B;" d="M43.614,95.031c-2.091,0-5.652-1.396-6.361-1.683c-0.063-0.026-0.103-0.089-0.098-0.157
						c0.005-0.068,0.052-0.126,0.118-0.143c0.448-0.117,0.747-0.19,0.868-0.22c0.848-1.249,16.561-24.322,22.662-28.645
						c0.291-0.206,0.583-0.402,0.875-0.593c0.04-0.026,0.088-0.032,0.133-0.019c0.402,0.123,0.748,0.244,1.058,0.369
						c1.331,0.537,2.116,1.336,2.333,2.375c0.451,2.16-1.659,4.594-2.587,5.541c-8.267,8.429-12.573,15.011-15.147,18.944
						c-1.826,2.79-2.742,4.19-3.687,4.227l0,0C43.726,95.03,43.671,95.031,43.614,95.031z M43.775,94.87h0.003H43.775z
						 M37.823,93.233c1.246,0.48,4.223,1.545,5.945,1.479l0,0c0.782-0.03,1.781-1.556,3.435-4.084
						c2.579-3.942,6.897-10.541,15.185-18.992c1.859-1.895,2.795-3.86,2.503-5.255c-0.194-0.93-0.915-1.653-2.142-2.147
						c-0.284-0.115-0.599-0.225-0.962-0.338c-0.268,0.176-0.536,0.357-0.803,0.546c-6.193,4.388-22.453,28.373-22.617,28.615
						c-0.022,0.033-0.056,0.056-0.095,0.065C38.272,93.122,38.115,93.159,37.823,93.233z"/>
				</g>
				<g>
					<g>
						<path style="fill:#1C1E1F;" d="M61.104,72.165c2.171-2.214,4.094-5.701,0.29-7.234c-0.294-0.118-0.596-0.221-0.902-0.316
							c-6.251,4.902-20.824,26.246-22.157,28.208c1.372,0.501,3.658,1.239,5.08,1.184C45.443,93.928,48.02,85.506,61.104,72.165z"/>
						<path style="fill:#18191B;" d="M43.26,94.158c-1.398,0-3.462-0.644-4.975-1.196c-0.043-0.016-0.077-0.051-0.091-0.094
							c-0.014-0.044-0.007-0.092,0.019-0.13c1.615-2.376,15.958-23.355,22.188-28.241c0.039-0.03,0.09-0.039,0.136-0.025
							c0.358,0.112,0.649,0.214,0.913,0.321c1.257,0.507,1.998,1.261,2.204,2.243c0.426,2.04-1.567,4.34-2.443,5.234l0,0
							c-7.809,7.962-11.876,14.179-14.307,17.893c-1.724,2.635-2.59,3.958-3.482,3.992C43.369,94.157,43.315,94.158,43.26,94.158z
							 M38.567,92.747c1.299,0.466,3.487,1.165,4.843,1.11c0.738-0.029,1.681-1.47,3.244-3.858
							c2.436-3.724,6.514-9.956,14.343-17.939l0,0c1.756-1.79,2.64-3.646,2.364-4.964c-0.184-0.878-0.864-1.561-2.023-2.028
							c-0.239-0.096-0.499-0.189-0.816-0.289C54.418,69.631,40.617,89.737,38.567,92.747z M61.104,72.165h0.003H61.104z"/>
					</g>
				</g>
			</g>
			<g>
				<path style="fill:#4D4E50;" d="M200.289,53.948c0,0-6.754-6.689-12.929-6.41c0,0-3.102-0.419-3.382,2.095
					c-0.279,2.514,0,7.874,0,7.874s-0.081,2.532,3.382,2.777c3.462,0.244,12.752,0,12.752,0s4.38,0.228,3.402-2.338
					C202.536,55.379,200.289,53.948,200.289,53.948z"/>
				<path style="fill:#18191B;" d="M192.195,60.5c-1.892,0-3.694-0.027-4.843-0.108c-1.834-0.13-2.684-0.904-3.073-1.531
					c-0.425-0.683-0.409-1.33-0.408-1.357c-0.003-0.045-0.276-5.388,0.001-7.882c0.076-0.681,0.359-1.217,0.842-1.595
					c1.031-0.805,2.595-0.604,2.661-0.595c0.126-0.006,0.253-0.009,0.379-0.009c5.934,0,12.339,6.182,12.604,6.441
					c0.165,0.109,2.312,1.561,3.258,4.043c0.228,0.597,0.195,1.102-0.096,1.502c-0.805,1.105-3.307,0.988-3.413,0.983
					C200.049,60.393,195.946,60.5,192.195,60.5z M186.88,47.621c-0.537,0-1.408,0.086-2.035,0.576
					c-0.435,0.34-0.691,0.827-0.759,1.448c-0.275,2.477-0.002,7.802,0,7.856c-0.003,0.108-0.031,2.441,3.281,2.675
					c3.418,0.241,12.649,0.002,12.741,0c0.033,0.002,2.5,0.117,3.236-0.894c0.245-0.337,0.268-0.773,0.069-1.297
					c-0.953-2.501-3.16-3.931-3.182-3.945c-0.006-0.004-0.012-0.009-0.018-0.014c-0.067-0.067-6.791-6.65-12.848-6.379
					C187.352,47.645,187.163,47.621,186.88,47.621z"/>
			</g>
			<g>
				<path style="fill:#4D4E50;" d="M200.289,53.948c0,0-6.754-6.689-12.929-6.41c0,0-3.102-0.419-3.382,2.095
					c-0.279,2.514,0,7.874,0,7.874s-0.081,2.532,3.382,2.777c3.462,0.244,12.752,0,12.752,0s4.38,0.228,3.402-2.338
					C202.536,55.379,200.289,53.948,200.289,53.948z"/>
				<path style="fill:#18191B;" d="M192.195,60.5c-1.892,0-3.694-0.027-4.843-0.108c-1.834-0.13-2.684-0.904-3.073-1.531
					c-0.425-0.683-0.409-1.33-0.408-1.357c-0.003-0.045-0.276-5.388,0.001-7.882c0.076-0.681,0.359-1.217,0.842-1.595
					c1.031-0.805,2.595-0.604,2.661-0.595c0.126-0.006,0.253-0.009,0.379-0.009c5.934,0,12.339,6.182,12.604,6.441
					c0.165,0.109,2.312,1.561,3.258,4.043c0.228,0.597,0.195,1.102-0.096,1.502c-0.805,1.105-3.307,0.988-3.413,0.983
					C200.049,60.393,195.946,60.5,192.195,60.5z M186.88,47.621c-0.537,0-1.408,0.086-2.035,0.576
					c-0.435,0.34-0.691,0.827-0.759,1.448c-0.275,2.477-0.002,7.802,0,7.856c-0.003,0.108-0.031,2.441,3.281,2.675
					c3.418,0.241,12.649,0.002,12.741,0c0.033,0.002,2.5,0.117,3.236-0.894c0.245-0.337,0.268-0.773,0.069-1.297
					c-0.953-2.501-3.16-3.931-3.182-3.945c-0.006-0.004-0.012-0.009-0.018-0.014c-0.067-0.067-6.791-6.65-12.848-6.379
					C187.352,47.645,187.163,47.621,186.88,47.621z"/>
			</g>
			<path style="fill:#3A3C3E;" d="M196.593,54.727c0,0-4.891-4.844-9.363-4.641c0,0-2.246-0.304-2.449,1.517
				c-0.202,1.821,0,5.702,0,5.702s-0.059,1.834,2.449,2.011c2.507,0.177,9.234,0,9.234,0s3.172,0.165,2.464-1.693
				C198.221,55.764,196.593,54.727,196.593,54.727z"/>
			<path style="opacity:0.37;fill:#4D4E50;" d="M346.606,72.215c-5.39-0.618-107.757-5.716-107.757-5.716
				s-25.216-5.287-34.216-13.247c-7.279-6.438-14.3-9.467-25.329-11.47c-0.019,0.11-0.043,0.22-0.075,0.332
				c-0.485,1.686-2.157,2.806-3.623,3.578c-3.982,2.097-8.618,2.894-13.075,2.945c-8.888,0.104-17.765-0.429-26.647-0.641
				c-8.773-0.209-17.573-0.909-26.347-0.406c-2.201,0.126-4.401,0.332-6.583,0.646c-1.225,0.176-2.536,0.516-3.446,1.407
				c-0.75,0.735-1.085,1.745-1.275,2.754c-0.248,1.321-0.298,2.676-0.413,4.012c-0.008,0.087-0.069,0.161-0.161,0.161
				c-3.221,0.008-6.421,0.524-9.644,0.543c-2.432,0.014-5.18-0.172-7.192-1.706c-1.434-1.093-1.7-2.765-1.101-4.402
				c0.202-0.552,0.468-1.08,0.772-1.588c-3.231,2.607-5.428,5.748-6.481,9.473c0,0-6.832,0.969-13.121,5.425
				c-6.288,4.456-22.656,28.655-22.656,28.655s-26.372,6.228-31.4,17.884c0,0-2.514,4.843,3.143,10.135
				c5.657,5.292,22.415,11.734,35.563,13.699c0,0,10.081,2.698,24.656,2.331h83.586c0,0,22.396,0.64,33.575-6.306
				c11.179-6.946,21.522-30.851,47.777-35.24c26.255-4.39,85.081-10.064,85.081-10.064l32.902-2.159c0,0,4.355,0.613,5.025-5.362
				C358.815,71.911,351.996,72.832,346.606,72.215z M186.492,118.136c-1.886,10.398-21.046,12.221-21.046,12.221
				s-98.166,0.218-103.613,0c-5.447-0.218-8.38-4.601-10.884-6.369c-2.504-1.768-12.162-2.003-15.35-2.003
				s-12.944,0.209-17.763-2.095c-4.819-2.305-9.428-5.028-5.657-12.221c3.771-7.193,23.787-12.795,23.787-12.795
				s0.726,1.132,4.402,1.968c3.676,0.836,7.428-2.832,7.428-2.832s18.437-24.403,22.403-27.621
				c3.966-3.218,10.258-3.065,10.258-3.065s91.16-0.212,98.521,0c7.361,0.212,7.514,5.445,7.514,5.445V118.136z M350.06,77.163
				c0,0-76.201,3.548-96.105,4.835c-19.904,1.287-26.189,5.417-29.376,5.815c-3.188,0.398-4.439-3.418-4.439-3.418
				s-0.125-10.807,0-15.626c0.125-4.819,10.979-1.032,10.979-1.032c4.26,1.106,10.266,1.871,10.266,1.871
				s112.926,3.77,113.345,5.349C355.148,76.536,350.06,77.163,350.06,77.163z"/>
			<path style="opacity:0.37;fill:#4D4E50;" d="M218.654,100.086c-1.423-1.173-2.481-2.716-3.201-4.405
				c-0.857-2.01-1.27-4.182-1.485-6.347c-0.21-2.122-0.185-4.252-0.209-6.381c-0.022-1.944-0.031-3.888,0.039-5.831
				c0.078-2.163,0.248-4.327,0.61-6.462c0.342-2.015,0.856-4.029,1.743-5.878c0.727-1.513,1.746-2.913,3.121-3.892
				c-5.702-2.087-11.292-4.677-14.639-7.637c-4.284-3.789-8.479-6.396-13.453-8.31c1.667,1.81,3.05,3.875,4.152,6.077
				c3.123,6.239,4.148,13.354,4.52,20.25c0.376,6.974-0.063,13.926-0.213,20.897c-0.186,8.628-0.479,17.427-3.108,25.721
				c-0.893,2.817-2.074,5.544-3.564,8.093c6.939-7.077,14.609-18.203,26.82-25.082C219.395,100.652,219.015,100.383,218.654,100.086
				z"/>
			<g>
				<g>
					<g>
						<path style="fill:#FFFFFF;" d="M130.585,131.345c0,0,0-60.091,0-63.98c0-3.889-3.422-4.041-3.422-4.041h-10.012h-9.128H98.012
							c0,0-3.422,0.153-3.422,4.041c0,3.889,0,63.98,0,63.98s-1.069,4.063,3.208,4.277h10.225h9.128h10.225
							C131.654,135.408,130.585,131.345,130.585,131.345z"/>
						<path style="fill:#97999C;" d="M117.151,135.78H97.798c-1.333-0.067-2.299-0.501-2.878-1.293
							c-0.917-1.252-0.541-2.946-0.488-3.162v-63.96c0-3.994,3.537-4.197,3.572-4.199h29.158c0.043,0.002,3.579,0.205,3.579,4.199
							v63.96c0.053,0.216,0.429,1.909-0.488,3.162c-0.579,0.791-1.545,1.226-2.87,1.292L117.151,135.78z M98.012,63.482
							c-0.126,0.006-3.264,0.196-3.264,3.883v64.001l-0.005,0.02c-0.004,0.017-0.438,1.729,0.433,2.917
							c0.521,0.71,1.405,1.101,2.63,1.162l29.571,0c1.218-0.061,2.103-0.453,2.623-1.164c0.872-1.191,0.436-2.898,0.432-2.916
							l-0.005-0.04v-63.98c0-3.687-3.137-3.877-3.271-3.884L98.012,63.482z"/>
					</g>
					<g>
						<path style="fill:#FFFFFF;" d="M130.585,131.345c0,0,0-60.091,0-63.98c0-3.889-3.422-4.041-3.422-4.041h-10.012h-9.128H98.012
							c0,0-3.422,0.153-3.422,4.041c0,3.889,0,63.98,0,63.98s-1.069,4.063,3.208,4.277h10.225h9.128h10.225
							C131.654,135.408,130.585,131.345,130.585,131.345z"/>
						<path style="fill:#97999C;" d="M117.151,135.78H97.798c-1.333-0.067-2.299-0.501-2.878-1.293
							c-0.917-1.252-0.541-2.946-0.488-3.162v-63.96c0-3.994,3.537-4.197,3.572-4.199h29.158c0.043,0.002,3.579,0.205,3.579,4.199
							v63.96c0.053,0.216,0.429,1.909-0.488,3.162c-0.579,0.791-1.545,1.226-2.87,1.292L117.151,135.78z M98.012,63.482
							c-0.126,0.006-3.264,0.196-3.264,3.883v64.001l-0.005,0.02c-0.004,0.017-0.438,1.729,0.433,2.917
							c0.521,0.71,1.405,1.101,2.63,1.162l29.571,0c1.218-0.061,2.103-0.453,2.623-1.164c0.872-1.191,0.436-2.898,0.432-2.916
							l-0.005-0.04v-63.98c0-3.687-3.137-3.877-3.271-3.884L98.012,63.482z"/>
					</g>
					<g>
						<path style="fill:#C83F36;" d="M130.585,117.443V67.365c0-3.889-3.422-4.041-3.422-4.041H98.012c0,0-3.422,0.152-3.422,4.041
							v50.078H130.585z"/>
						<path style="fill:#810913;" d="M130.585,117.601H94.59c-0.087,0-0.158-0.071-0.158-0.158V67.365
							c0-3.994,3.537-4.197,3.572-4.199h29.158c0.043,0.002,3.579,0.205,3.579,4.199v50.078
							C130.742,117.53,130.672,117.601,130.585,117.601z M94.748,117.285h35.678v-49.92c0-3.687-3.137-3.877-3.271-3.884l-29.144,0
							c-0.126,0.006-3.264,0.196-3.264,3.883V117.285z"/>
					</g>
					<path style="opacity:0.32;fill:#4D4E50;" d="M130.585,131.345c0,0,0-60.091,0-63.98c0-3.889-3.422-4.041-3.422-4.041h-10.012
						h-9.128H98.012c0,0-3.422,0.153-3.422,4.041c0,3.889,0,63.98,0,63.98s-1.069,4.063,3.208,4.277h10.225h9.128h10.225
						C131.654,135.408,130.585,131.345,130.585,131.345z M125.673,130.357h-9.047h-8.076h-9.047
						c-3.784-0.189-2.838-3.784-2.838-3.784s0-53.168,0-56.609c0-3.441,3.027-3.576,3.027-3.576h8.858h8.076h8.858
						c0,0,3.027,0.135,3.027,3.576c0,3.441,0,56.609,0,56.609S129.457,130.167,125.673,130.357z"/>
				</g>
				<g>
					<g>
						<path style="fill:#4D4E50;" d="M87.184,66.464H76.646c0,0-5.147,0.458-8.932,6.41c-3.785,5.951-11.403,20.652-11.403,20.652
							s-3.007,4.574,0.001,6.46c3.007,1.885,22.492,2.723,30.453,2.095c0,0,5.657-0.412,5.866-3.663c0.209-3.251,0-26.4,0-26.4
							S91.793,65.626,87.184,66.464z"/>
						<path style="fill:#18191B;" d="M80.167,102.445c-9.204,0-21.625-0.874-23.939-2.325c-0.71-0.446-1.158-1.072-1.33-1.862
							c-0.464-2.13,1.21-4.709,1.281-4.818c0.068-0.133,7.656-14.761,11.402-20.65c3.784-5.948,8.999-6.478,9.051-6.482
							l10.538-0.001c1.153-0.205,2.177,0.01,3.044,0.643c2.09,1.525,2.555,4.905,2.573,5.049c0.004,0.251,0.209,23.211,0.001,26.431
							c-0.216,3.35-5.776,3.793-6.013,3.81C85.007,102.378,82.709,102.445,80.167,102.445z M76.646,66.622
							c-0.037,0.004-5.103,0.526-8.799,6.337c-3.738,5.877-11.32,20.493-11.396,20.64c-0.025,0.039-1.681,2.593-1.245,4.592
							c0.154,0.704,0.554,1.263,1.189,1.661c2.912,1.826,22.211,2.714,30.357,2.072c0.056-0.004,5.523-0.44,5.721-3.516
							c0.207-3.208,0.002-26.157,0-26.388c-0.003-0.015-0.466-3.372-2.446-4.816c-0.799-0.582-1.746-0.779-2.815-0.584
							c-0.009,0.002-0.019,0.002-0.028,0.002H76.646z"/>
					</g>
					<g>
						<path style="fill:#1C1E1F;" d="M85.929,67.753h-9.451c0,0-4.616,0.425-8.011,5.948c-3.395,5.522-10.227,19.163-10.227,19.163
							s-2.697,4.244,0.001,5.994c2.697,1.75,20.173,2.527,27.313,1.944c0,0,5.073-0.382,5.261-3.399c0.188-3.017,0-24.496,0-24.496
							S90.063,66.975,85.929,67.753z"/>
						<path style="fill:#18191B;" d="M79.636,101.137c-8.256,0-19.399-0.812-21.475-2.158c-2.785-1.806-0.071-6.149-0.044-6.192
							c0.061-0.124,6.866-13.697,10.226-19.162c3.394-5.52,8.074-6.011,8.12-6.015l9.451-0.001c1.012-0.188,1.916,0.001,2.685,0.56
							c1.916,1.395,2.34,4.584,2.357,4.719c0.003,0.232,0.187,21.536,0.001,24.524c-0.194,3.106-5.182,3.517-5.394,3.533
							C83.976,101.075,81.916,101.137,79.636,101.137z M76.477,67.897c-0.032,0.004-4.574,0.488-7.888,5.879
							c-3.353,5.454-10.153,19.016-10.221,19.152c-0.033,0.054-2.596,4.157-0.05,5.809c2.612,1.694,19.917,2.519,27.223,1.921
							c0.05-0.004,4.951-0.408,5.129-3.264c0.186-2.977,0.002-24.271,0-24.486c-0.003-0.015-0.425-3.185-2.241-4.506
							c-0.705-0.513-1.537-0.684-2.475-0.507c-0.009,0.001-0.018,0.002-0.027,0.002H76.477z"/>
					</g>
					<g>
						<path style="fill:#4D4E50;" d="M123.519,68.667c-0.209-2.391-4.22-2.975-4.22-2.975h-8.804h-1h-3.588
							c0,0-4.013,0.583-4.222,2.975c-0.21,2.391,0,28.744,0,28.744s-0.292,4.134,4.358,4.325h1.772h9.583h1.765
							c4.648-0.19,4.356-4.325,4.356-4.325S123.728,71.058,123.519,68.667z"/>
						<path style="fill:#18191B;" d="M117.399,101.894h-11.355c-1.516-0.062-2.678-0.537-3.461-1.412
							c-1.166-1.304-1.06-3.01-1.055-3.082c-0.009-1.064-0.208-26.375,0-28.747c0.218-2.487,4.188-3.092,4.357-3.117l13.414-0.001
							c0.191,0.026,4.159,0.631,4.377,3.119c0.208,2.372,0.009,27.683,0.001,28.759c0.005,0.06,0.111,1.766-1.056,3.07
							c-0.782,0.875-1.943,1.35-3.451,1.411H117.399z M105.908,65.85c-0.016,0.004-3.869,0.592-4.065,2.831
							c-0.206,2.356-0.002,28.465,0.001,28.729c-0.002,0.029-0.1,1.661,0.978,2.864c0.724,0.808,1.81,1.247,3.229,1.304h13.113
							c1.411-0.058,2.497-0.497,3.22-1.304c1.078-1.203,0.979-2.836,0.978-2.852c0.002-0.276,0.207-26.385,0-28.741
							c-0.196-2.239-4.046-2.827-4.085-2.832L105.908,65.85z"/>
					</g>
					<g>
						<path style="fill:#1C1E1F;" d="M122.157,69.934c-0.183-2.194-3.694-2.729-3.694-2.729h-7.706h-0.875h-3.14
							c0,0-3.512,0.535-3.696,2.729c-0.183,2.194,0,26.373,0,26.373s-0.256,3.793,3.815,3.968h1.551h8.388h1.544
							c4.068-0.175,3.812-3.968,3.812-3.968S122.34,72.128,122.157,69.934z"/>
						<path style="fill:#18191B;" d="M116.8,100.416h-9.939c-1.295-0.055-2.295-0.471-2.98-1.237
							c-1.075-1.201-0.98-2.814-0.975-2.883c-0.008-0.977-0.182-24.2,0-26.375c0.19-2.279,3.667-2.835,3.815-2.858l11.742-0.001
							c0.169,0.024,3.644,0.58,3.834,2.859l0,0c0.182,2.175,0.008,25.398,0.001,26.385c0.004,0.058,0.1,1.672-0.976,2.873
							c-0.685,0.765-1.685,1.181-2.972,1.236L116.8,100.416z M106.743,67.346c-0.013,0.003-3.383,0.543-3.555,2.6
							c-0.181,2.163-0.001,26.118,0.001,26.36c-0.001,0.026-0.091,1.577,0.905,2.687c0.632,0.705,1.566,1.088,2.774,1.141l11.477,0
							c1.201-0.052,2.134-0.435,2.765-1.14c0.996-1.111,0.907-2.662,0.906-2.678c0.002-0.252,0.181-24.207,0-26.37l0,0
							c-0.172-2.059-3.54-2.596-3.574-2.601L106.743,67.346z"/>
					</g>
					<g>
						<path style="fill:#4D4E50;" d="M150.695,65.692h-12.693c0,0-5.788,0.114-5.513,5.471s0,24.229,0,24.229
							s-0.144,6.346,5.094,6.517l21.585-5.647c0,0,3.372-0.717,3.674-4.153c0.301-3.437,0-22.019,0-22.019s-0.316-4.122-3.674-4.398
							C155.811,65.416,150.695,65.692,150.695,65.692z"/>
						<path style="fill:#18191B;" d="M137.583,102.067c-0.002,0-0.003,0-0.005,0c-2.21-0.072-3.819-1.257-4.653-3.424
							c-0.623-1.618-0.595-3.188-0.593-3.255c0.003-0.187,0.272-18.926,0-24.217c-0.08-1.554,0.333-2.83,1.228-3.79
							c1.651-1.772,4.326-1.845,4.439-1.847h12.691c0.174-0.009,5.203-0.27,8.491,0.001c3.452,0.284,3.815,4.501,3.818,4.543
							c0.003,0.195,0.298,18.639,0,22.044c-0.308,3.512-3.763,4.287-3.798,4.294l-21.578,5.646
							C137.61,102.066,137.596,102.067,137.583,102.067z M138.002,65.85c-0.023,0.001-2.655,0.074-4.213,1.748
							c-0.833,0.896-1.218,2.092-1.142,3.558c0.272,5.301,0.003,24.05,0,24.239c0,0.017-0.027,1.583,0.575,3.144
							c0.794,2.056,2.255,3.137,4.343,3.213l21.563-5.642c0.14-0.03,3.269-0.738,3.557-4.015c0.297-3.389,0.002-21.816-0.001-22.002
							c0,0-0.084-1.012-0.567-2.039c-0.636-1.353-1.633-2.095-2.962-2.204c-3.308-0.272-8.402-0.002-8.452,0
							c-0.003,0-0.006,0-0.008,0H138.002z"/>
					</g>
					<g>
						<path style="fill:#1C1E1F;" d="M150.359,67.344h-11.255c0,0-5.132,0.101-4.888,4.851c0.244,4.75,0,21.484,0,21.484
							s-0.128,5.627,4.517,5.779l19.14-5.008c0,0,2.99-0.636,3.258-3.683c0.267-3.047,0-19.524,0-19.524s-0.28-3.655-3.258-3.9
							C154.895,67.1,150.359,67.344,150.359,67.344z"/>
						<path style="fill:#18191B;" d="M138.732,99.598c-0.002,0-0.003,0-0.005,0c-4.728-0.155-4.653-5.864-4.652-5.922
							c0.002-0.166,0.241-16.783,0-21.474c-0.071-1.378,0.296-2.509,1.089-3.361c1.463-1.571,3.836-1.636,3.936-1.638h11.254
							c0.156-0.008,4.613-0.239,7.529,0.001c3.061,0.251,3.383,3.991,3.385,4.028c0.003,0.173,0.265,16.527,0,19.547
							c-0.273,3.114-3.337,3.801-3.368,3.807l-19.133,5.006C138.756,99.597,138.744,99.598,138.732,99.598z M139.104,67.484
							c-0.021,0-2.354,0.065-3.736,1.55c-0.739,0.794-1.08,1.855-1.013,3.155c0.241,4.7,0.003,21.326,0,21.493
							c0,0.015-0.024,1.403,0.51,2.787c0.704,1.823,2,2.782,3.851,2.849l19.12-5.003c0.124-0.027,2.899-0.654,3.153-3.56
							c0.263-3.005,0.002-19.344-0.001-19.509c-0.002-0.027-0.307-3.531-3.129-3.762c-2.934-0.24-7.45-0.002-7.495,0
							c-0.003,0-0.005,0-0.008,0H139.104z"/>
					</g>
				</g>
				<g>
					<path style="fill:#FFFFFF;" d="M135.727,59.156h-30.982c-2.546,0-4.629-2.083-4.629-4.629v-1.371
						c0-2.546,2.083-4.629,4.629-4.629h30.982c2.546,0,4.629,2.083,4.629,4.629v1.371C140.356,57.073,138.273,59.156,135.727,59.156
						z"/>
					<path style="fill:#97999C;" d="M135.727,59.314h-30.983c-2.64,0-4.787-2.147-4.787-4.787v-1.371
						c0-2.639,2.147-4.787,4.787-4.787h30.983c2.64,0,4.787,2.147,4.787,4.787v1.371C140.514,57.167,138.366,59.314,135.727,59.314z
						 M104.744,48.685c-2.465,0-4.471,2.006-4.471,4.471v1.371c0,2.465,2.006,4.471,4.471,4.471h30.983
						c2.466,0,4.471-2.006,4.471-4.471v-1.371c0-2.465-2.006-4.471-4.471-4.471H104.744z"/>
				</g>
				<path style="fill:#565759;" d="M80.226,84.59c3.537-0.862,7.087-1.669,10.65-2.418c-0.025-4.997-0.062-9.265-0.062-9.265
					s-0.752-5.932-4.886-5.154h-9.451c0,0-4.616,0.425-8.011,5.948c-2.47,4.018-6.759,12.332-8.913,16.565
					C66.392,88.187,73.283,86.283,80.226,84.59z"/>
				<path style="fill:#565759;" d="M109.791,78.793c4.136-0.602,8.287-1.109,12.448-1.521c-0.002-3.687-0.023-6.637-0.081-7.339
					c-0.183-2.194-3.694-2.729-3.694-2.729h-11.721c0,0-3.512,0.535-3.696,2.729c-0.072,0.86-0.087,5.101-0.08,9.939
					C105.238,79.488,107.512,79.125,109.791,78.793z"/>
				<path style="fill:#565759;" d="M134.31,76.368c1.731-0.087,3.464-0.162,5.197-0.211c7.232-0.203,14.477-0.063,21.693,0.47
					c-0.033-3.061-0.07-5.383-0.07-5.383s-0.28-3.655-3.258-3.899c-2.977-0.244-7.514,0-7.514,0h-11.254
					c0,0-5.132,0.101-4.888,4.851C134.266,73.167,134.295,74.64,134.31,76.368z"/>
				<g>
					<g>
						<g>
							<path style="fill:#D8D9DA;" d="M145.48,60.284L145.48,60.284c-1.354,0-2.462-1.108-2.462-2.462v-0.63
								c0-1.354,1.108-2.462,2.462-2.462l0,0c1.354,0,2.462,1.108,2.462,2.462v0.63C147.942,59.176,146.834,60.284,145.48,60.284z"
								/>
							<path style="fill:#97999C;" d="M145.48,60.442c-1.444,0-2.62-1.175-2.62-2.62v-0.63c0-1.444,1.175-2.619,2.62-2.619
								c1.445,0,2.62,1.175,2.62,2.619v0.63C148.1,59.266,146.925,60.442,145.48,60.442z M145.48,54.888
								c-1.27,0-2.304,1.034-2.304,2.304v0.63c0,1.271,1.034,2.304,2.304,2.304c1.271,0,2.304-1.033,2.304-2.304v-0.63
								C147.784,55.922,146.751,54.888,145.48,54.888z"/>
						</g>
						<g>
							<path style="fill:#D8D9DA;" d="M169.72,60.284L169.72,60.284c-1.354,0-2.462-1.108-2.462-2.462v-0.63
								c0-1.354,1.108-2.462,2.462-2.462h0c1.354,0,2.462,1.108,2.462,2.462v0.63C172.182,59.176,171.074,60.284,169.72,60.284z"/>
							<path style="fill:#97999C;" d="M169.72,60.442c-1.445,0-2.62-1.175-2.62-2.62v-0.63c0-1.444,1.175-2.619,2.62-2.619
								c1.444,0,2.62,1.175,2.62,2.619v0.63C172.34,59.266,171.165,60.442,169.72,60.442z M169.72,54.888
								c-1.27,0-2.304,1.034-2.304,2.304v0.63c0,1.271,1.034,2.304,2.304,2.304s2.304-1.033,2.304-2.304v-0.63
								C172.024,55.922,170.991,54.888,169.72,54.888z"/>
						</g>
					</g>
					<g>
						<g>
							<g>
								<g>
									<rect x="132.546" y="53.165" style="fill:#B5B7B9;" width="41.504" height="3.131"/>
									<path style="fill:#6D7072;" d="M174.328,56.573h-42.059v-3.685h42.059V56.573z M132.823,56.019h40.95v-2.576h-40.95V56.019
										z"/>
								</g>
								<g>
									<rect x="132.546" y="55.507" style="fill:#B5B7B9;" width="41.504" height="0.789"/>
								</g>
								<rect x="132.546" y="53.165" style="opacity:0.5;fill:#5D6062;" width="41.504" height="1.565"/>
							</g>
							<g>
								<path style="fill:#FFFFFF;" d="M135.727,59.156h-30.982c-2.546,0-4.629-2.083-4.629-4.629v-1.371
									c0-2.546,2.083-4.629,4.629-4.629h30.982c2.546,0,4.629,2.083,4.629,4.629v1.371
									C140.356,57.073,138.273,59.156,135.727,59.156z"/>
								<path style="fill:#97999C;" d="M135.727,59.314h-30.983c-2.64,0-4.787-2.147-4.787-4.787v-1.371
									c0-2.639,2.147-4.787,4.787-4.787h30.983c2.64,0,4.787,2.147,4.787,4.787v1.371
									C140.514,57.167,138.366,59.314,135.727,59.314z M104.744,48.685c-2.465,0-4.471,2.006-4.471,4.471v1.371
									c0,2.465,2.006,4.471,4.471,4.471h30.983c2.466,0,4.471-2.006,4.471-4.471v-1.371c0-2.465-2.006-4.471-4.471-4.471H104.744z
									"/>
							</g>
						</g>
						<path style="opacity:0.32;fill:#4D4E50;" d="M135.727,48.527h-30.982c-2.546,0-4.629,2.083-4.629,4.629v1.371
							c0,2.546,2.083,4.629,4.629,4.629h30.982c2.546,0,4.629-2.083,4.629-4.629v-1.371
							C140.356,50.61,138.273,48.527,135.727,48.527z M127.924,54.267c0,1.579-1.292,2.871-2.871,2.871h-19.216
							c-1.579,0-2.871-1.292-2.871-2.871v-0.85c0-1.579,1.292-2.871,2.871-2.871h19.216c1.579,0,2.871,1.292,2.871,2.871V54.267z"/>
					</g>
				</g>
			</g>
			<path style="fill:#C83F36;" d="M34.613,96.071c0,0-20.822,6.605-22.295,16.136c0,0,6.285,1.397,11.593,1.117
				c0,0,8.829-12.298,14.424-15.644L34.613,96.071z"/>
			<path style="fill:#C83F36;" d="M230.49,68.768c0,0,3.352,2.501,8.38,2.508c5.028,0.007,98.632,3.432,99.61,2.878
				c0.978-0.554,1.45,1.715,1.45,1.715l-106.088,1.294c0,0-7.438,1.933-10.583-2.608C220.114,70.014,225.954,66.757,230.49,68.768z"
				/>
			<g>
				<path style="opacity:0.37;fill:#4D4E50;" d="M178.447,109.625h-8.663c-2.176,0-3.947-1.77-3.947-3.947V91.534
					c0-2.176,1.77-3.947,3.947-3.947h8.663c2.176,0,3.947,1.77,3.947,3.947v14.144C182.393,107.854,180.623,109.625,178.447,109.625
					z M169.784,87.903c-2.002,0-3.631,1.629-3.631,3.631v14.144c0,2.002,1.629,3.631,3.631,3.631h8.663
					c2.002,0,3.631-1.629,3.631-3.631V91.534c0-2.002-1.629-3.631-3.631-3.631H169.784z"/>
				<path style="fill:#C83F36;" d="M177.798,88.882h-7.333c0,0-3.165-0.524-3.206,4.085v10.266l1.321-10.371
					c0,0-0.21-2.619,2.305-2.933C173.398,89.615,177.798,88.882,177.798,88.882z"/>
			</g>
			<g>
				<path style="fill:#C83F36;" d="M340.804,75.966l29.163,66.202h23.256l-1.783-11.813h-7.187c0,0-4.242,0.538-7.339-4.44
					c-3.097-4.978-13.996-42.667-13.996-42.667L375.6,52.709c0,0,1.635-2.716,7.011-3.457h3.546l15.946-46.685h-17.849
					L340.804,75.966z"/>
				<path style="fill:#810913;" d="M393.223,142.326h-23.256c-0.063,0-0.119-0.037-0.145-0.094L340.66,76.03
					c-0.02-0.047-0.017-0.1,0.009-0.144l43.449-73.399c0.029-0.048,0.08-0.077,0.136-0.077h17.849c0.051,0,0.099,0.025,0.128,0.066
					c0.03,0.042,0.038,0.095,0.021,0.143l-15.945,46.686c-0.022,0.064-0.082,0.107-0.15,0.107h-3.546
					c-5.205,0.719-6.86,3.354-6.876,3.381l-12.65,30.466c0.469,1.618,10.966,37.757,13.963,42.575
					c3.003,4.827,7.143,4.372,7.185,4.366l7.206-0.001c0.078,0,0.144,0.057,0.156,0.134l1.783,11.813
					c0.007,0.045-0.007,0.091-0.036,0.126C393.313,142.306,393.269,142.326,393.223,142.326z M370.07,142.011h22.969l-1.735-11.498
					h-7.051c-0.024,0.004-4.358,0.493-7.473-4.514c-3.073-4.94-13.569-41.167-14.014-42.706c-0.01-0.035-0.008-0.071,0.006-0.104
					l12.682-30.539c0.079-0.134,1.746-2.81,7.135-3.553l3.455-0.002l15.838-46.369h-17.538l-43.362,73.252L370.07,142.011z"/>
			</g>
			<g>
				<path style="fill:#C83F36;" d="M340.804,75.966l29.163,66.202h23.256l-1.783-11.813h-7.187c0,0-4.242,0.538-7.339-4.44
					c-3.097-4.978-13.996-42.667-13.996-42.667L375.6,52.709c0,0,1.635-2.716,7.011-3.457h3.546l15.946-46.685h-17.849
					L340.804,75.966z"/>
				<path style="fill:#810913;" d="M393.223,142.326h-23.256c-0.063,0-0.119-0.037-0.145-0.094L340.66,76.03
					c-0.02-0.047-0.017-0.1,0.009-0.144l43.449-73.399c0.029-0.048,0.08-0.077,0.136-0.077h17.849c0.051,0,0.099,0.025,0.128,0.066
					c0.03,0.042,0.038,0.095,0.021,0.143l-15.945,46.686c-0.022,0.064-0.082,0.107-0.15,0.107h-3.546
					c-5.205,0.719-6.86,3.354-6.876,3.381l-12.65,30.466c0.469,1.618,10.966,37.757,13.963,42.575
					c3.003,4.827,7.143,4.372,7.185,4.366l7.206-0.001c0.078,0,0.144,0.057,0.156,0.134l1.783,11.813
					c0.007,0.045-0.007,0.091-0.036,0.126C393.313,142.306,393.269,142.326,393.223,142.326z M370.07,142.011h22.969l-1.735-11.498
					h-7.051c-0.024,0.004-4.358,0.493-7.473-4.514c-3.073-4.94-13.569-41.167-14.014-42.706c-0.01-0.035-0.008-0.071,0.006-0.104
					l12.682-30.539c0.079-0.134,1.746-2.81,7.135-3.553l3.455-0.002l15.838-46.369h-17.538l-43.362,73.252L370.07,142.011z"/>
			</g>
			<path style="opacity:0.37;fill:#4D4E50;" d="M384.253,130.355c0,0-4.242,0.538-7.339-4.44
				c-3.097-4.978-13.996-42.667-13.996-42.667L375.6,52.709c0,0,1.635-2.716,7.011-3.457h3.546l15.946-46.685h-7.391
				c-1.855,3.829-3.537,7.743-5.109,11.697c-1.996,5.02-3.823,10.105-5.62,15.2c-0.422,1.196-0.916,2.393-1.239,3.62
				c-0.286,1.088-0.54,2.183-0.835,3.268c-0.569,2.096-1.292,4.243-2.709,5.931c-1.413,1.682-3.964,1.39-5.597,2.798
				c-1.718,1.482-2.496,3.898-3.396,5.905c-2.277,5.08-3.831,10.456-5.893,15.625c-0.047,0.119-0.169,0.152-0.269,0.071
				c-2.924-2.354-6.925-2.66-10.399-1.468c-5.374,1.843-8.977,6.704-10.744,11.915c-0.24,0.708-0.45,1.425-0.637,2.148l4.434,10.067
				c0.037-0.028,0.071-0.058,0.108-0.085c1.387-1.024,3.057-1.823,4.82-1.726c1.491,0.082,2.831,0.803,3.93,1.781
				c1.32,1.175,2.333,2.679,3.192,4.212c0.981,1.752,1.777,3.606,2.487,5.483c1.247,3.295,2.159,6.689,3.221,10.044
				c0.471,1.488,1.044,2.947,1.571,4.416c0.689,1.923,1.376,3.847,2.06,5.772c1.366,3.84,2.727,7.681,4.1,11.518
				c1.363,3.809,2.737,7.614,4.139,11.409h16.897l-1.783-11.813H384.253z"/>
			<g>
				<path style="fill:#C83F36;" d="M361.65,74.284c0,3.74-3.032,6.773-6.773,6.773c-3.741,0-6.773-3.032-6.773-6.773
					c0-3.741,3.032-6.773,6.773-6.773C358.618,67.511,361.65,70.544,361.65,74.284z"/>
				<path style="fill:#810913;" d="M354.878,81.215c-3.822,0-6.931-3.109-6.931-6.931c0-3.821,3.109-6.93,6.931-6.93
					c3.821,0,6.931,3.109,6.931,6.93C361.808,78.106,358.699,81.215,354.878,81.215z M354.878,67.669
					c-3.647,0-6.615,2.967-6.615,6.615c0,3.647,2.968,6.615,6.615,6.615s6.615-2.968,6.615-6.615
					C361.492,70.636,358.525,67.669,354.878,67.669z"/>
			</g>
			<g>
				<path style="fill:#C83F36;" d="M361.65,74.284c0,3.74-3.032,6.773-6.773,6.773c-3.741,0-6.773-3.032-6.773-6.773
					c0-3.741,3.032-6.773,6.773-6.773C358.618,67.511,361.65,70.544,361.65,74.284z"/>
				<path style="fill:#810913;" d="M354.878,81.215c-3.822,0-6.931-3.109-6.931-6.931c0-3.821,3.109-6.93,6.931-6.93
					c3.821,0,6.931,3.109,6.931,6.93C361.808,78.106,358.699,81.215,354.878,81.215z M354.878,67.669
					c-3.647,0-6.615,2.967-6.615,6.615c0,3.647,2.968,6.615,6.615,6.615s6.615-2.968,6.615-6.615
					C361.492,70.636,358.525,67.669,354.878,67.669z"/>
			</g>
			<path style="fill:#C83F36;" d="M357.572,72.866c0,1.87-1.516,3.386-3.386,3.386c-1.87,0-3.386-1.516-3.386-3.386
				s1.516-3.386,3.386-3.386C356.056,69.48,357.572,70.996,357.572,72.866z"/>
			<polygon style="fill:#C83F36;" points="386.719,3.95 350.973,63.554 357.572,62.696 389.317,4.675 			"/>
			<polygon style="fill:#C83F36;" points="370.884,141.152 349.114,90.11 351.916,89.697 373.482,140.428 			"/>
			<g>
				<path style="fill:#C83F36;" d="M188.552,153.4c-0.617-0.344-1.394-0.139-1.762,0.456c-0.503,0.466-3.065,1.061-5.55,1.288
					c-0.599,0.003-5.246,0.025-12.44,0.054l-4.44-12.089c-0.028-0.172-0.088-0.331-0.174-0.474l-3.239-8.819
					c-0.251-0.683-1.008-1.034-1.692-0.783c-0.683,0.251-1.034,1.008-0.783,1.691l2.664,7.253H72.983l2.664-7.253
					c0.251-0.683-0.1-1.441-0.783-1.691c-0.684-0.252-1.441,0.1-1.691,0.783l-3.24,8.819c-0.086,0.143-0.146,0.302-0.174,0.473
					l-4.495,12.239c-6.252-0.04-10.401-0.103-11.356-0.198c-4.731-0.471-5.585-2.975-5.632-3.123
					c-0.192-0.692-0.904-1.104-1.601-0.923c-0.704,0.183-1.127,0.903-0.944,1.607c0.047,0.179,1.217,4.395,7.916,5.061
					c2.009,0.2,17.055,0.266,36.166,0.266c36.643,0,88.228-0.244,91.494-0.26c0.037,0,0.074-0.002,0.111-0.005
					c2.437-0.216,6.67-0.84,7.642-2.582C189.415,154.557,189.187,153.754,188.552,153.4z M68.067,155.363l3.927-10.691h90.131
					l3.871,10.538C141.129,155.311,92.312,155.48,68.067,155.363z"/>
				<path style="fill:#810913;" d="M89.814,158.197c-22.227,0-34.401-0.09-36.181-0.267c-6.803-0.677-8.005-4.995-8.053-5.179
					c-0.205-0.787,0.27-1.595,1.057-1.8c0.776-0.2,1.579,0.262,1.793,1.033c0.031,0.099,0.851,2.546,5.495,3.008
					c0.888,0.088,4.667,0.154,11.231,0.196l4.457-12.135c0.023-0.158,0.088-0.336,0.186-0.499l3.227-8.793
					c0.136-0.37,0.408-0.665,0.765-0.831c0.358-0.166,0.759-0.182,1.129-0.045c0.37,0.136,0.665,0.407,0.83,0.765
					c0.166,0.358,0.182,0.759,0.046,1.129l-2.586,7.041h87.7l-2.586-7.041c-0.136-0.37-0.12-0.771,0.046-1.129
					c0.166-0.358,0.461-0.63,0.831-0.766c0.37-0.136,0.771-0.12,1.129,0.046c0.358,0.166,0.629,0.461,0.765,0.831l3.239,8.819
					c0.086,0.137,0.151,0.315,0.182,0.503l4.395,11.956c6.716-0.028,11.189-0.049,12.185-0.053l0.144-0.001
					c2.646-0.243,4.969-0.841,5.43-1.233c0.42-0.656,1.277-0.872,1.961-0.491c0,0,0,0,0,0c0.71,0.397,0.966,1.298,0.57,2.008
					c-1.007,1.805-5.298,2.443-7.766,2.662c-0.041,0.004-0.082,0.005-0.123,0.006C179.106,157.948,126.949,158.197,89.814,158.197z
					 M47.005,151.221c-0.096,0-0.192,0.012-0.289,0.037c-0.619,0.161-0.992,0.796-0.831,1.415c0.046,0.175,1.192,4.289,7.779,4.944
					c1.771,0.176,13.933,0.266,36.15,0.266c37.135,0,89.291-0.249,91.493-0.26c0.032,0,0.064-0.002,0.097-0.005
					c2.406-0.214,6.582-0.823,7.519-2.501c0.312-0.559,0.111-1.267-0.448-1.579l0,0c-0.543-0.302-1.224-0.126-1.551,0.402
					c-0.008,0.012-0.017,0.023-0.027,0.033c-0.602,0.557-3.398,1.124-5.643,1.33l-0.158,0.001
					c-1.001,0.005-5.518,0.026-12.296,0.054c0,0-0.001,0-0.001,0c-0.066,0-0.125-0.041-0.148-0.103l-4.44-12.089
					c-0.032-0.177-0.083-0.318-0.161-0.447l-3.252-8.846c-0.107-0.291-0.321-0.523-0.602-0.653
					c-0.282-0.131-0.596-0.143-0.887-0.036c-0.291,0.107-0.523,0.321-0.653,0.602c-0.13,0.281-0.143,0.596-0.036,0.887l2.664,7.253
					c0.018,0.049,0.011,0.103-0.019,0.145c-0.03,0.042-0.078,0.067-0.129,0.067H72.983c-0.052,0-0.1-0.025-0.13-0.067
					c-0.029-0.042-0.036-0.096-0.019-0.145l2.664-7.253c0.107-0.291,0.094-0.606-0.036-0.887c-0.13-0.281-0.362-0.495-0.653-0.602
					c-0.291-0.107-0.606-0.095-0.887,0.036c-0.281,0.13-0.495,0.362-0.602,0.653l-3.239,8.819c-0.09,0.156-0.142,0.296-0.166,0.444
					l-4.503,12.268c-0.023,0.062-0.082,0.103-0.148,0.103c0,0-0.001,0-0.001,0c-6.643-0.042-10.468-0.109-11.371-0.199
					c-4.849-0.482-5.731-3.12-5.766-3.232C47.984,151.56,47.513,151.221,47.005,151.221z M89.119,155.561
					c-7.993,0-15.224-0.012-21.053-0.04c-0.051,0-0.1-0.026-0.129-0.068c-0.029-0.042-0.036-0.096-0.018-0.145l3.927-10.691
					c0.023-0.062,0.082-0.103,0.148-0.103h90.131c0.066,0,0.125,0.041,0.148,0.103l3.871,10.538
					c0.018,0.048,0.011,0.102-0.018,0.145c-0.029,0.042-0.078,0.068-0.129,0.068C146.101,155.449,113.956,155.561,89.119,155.561z
					 M68.293,155.206c23.943,0.114,71.215-0.047,97.477-0.153l-3.755-10.223h-89.91L68.293,155.206z"/>
			</g>
			<g>
				<path style="fill:#1C1E1F;" d="M164.467,143.403l-0.108-0.294c-0.028-0.172-0.088-0.331-0.174-0.474l-3.239-8.819
					c-0.251-0.683-1.008-1.034-1.692-0.783c-0.683,0.251-1.034,1.008-0.783,1.691l2.664,7.253H72.983l2.664-7.253
					c0.251-0.683-0.1-1.441-0.783-1.691c-0.684-0.252-1.441,0.1-1.691,0.783l-3.24,8.82c-0.086,0.143-0.146,0.302-0.174,0.473
					l-0.108,0.294H164.467z"/>
				<path style="fill:#18191B;" d="M164.467,143.543H69.652c-0.046,0-0.089-0.022-0.115-0.06c-0.026-0.038-0.032-0.085-0.017-0.128
					l0.108-0.294c0.023-0.159,0.088-0.335,0.185-0.497l3.228-8.796c0.134-0.365,0.403-0.657,0.756-0.82
					c0.354-0.164,0.75-0.179,1.115-0.045c0.755,0.277,1.143,1.116,0.866,1.871l-2.595,7.065h87.751l-2.595-7.065
					c-0.277-0.755,0.111-1.594,0.866-1.871c0.365-0.135,0.762-0.119,1.115,0.045c0.353,0.163,0.622,0.455,0.756,0.82l3.239,8.819
					c0.086,0.138,0.151,0.314,0.181,0.5l0.101,0.267c0.016,0.043,0.01,0.091-0.016,0.128
					C164.555,143.52,164.512,143.543,164.467,143.543z M69.851,143.263h94.415l-0.039-0.105c-0.031-0.176-0.084-0.319-0.162-0.45
					l-3.251-8.843c-0.109-0.296-0.326-0.531-0.611-0.663c-0.286-0.132-0.606-0.145-0.901-0.036c-0.61,0.224-0.924,0.902-0.7,1.512
					l2.664,7.253c0.016,0.043,0.01,0.091-0.016,0.129c-0.026,0.037-0.069,0.06-0.115,0.06H72.983c-0.046,0-0.089-0.023-0.115-0.06
					c-0.026-0.038-0.032-0.085-0.017-0.129l2.664-7.253c0.224-0.609-0.09-1.288-0.7-1.512c-0.296-0.109-0.616-0.096-0.901,0.036
					c-0.285,0.132-0.502,0.368-0.611,0.663l-3.239,8.819c-0.09,0.155-0.142,0.298-0.167,0.447L69.851,143.263z"/>
			</g>
		</g>
		<g>
			<g>
				<g style="opacity:0.44;">
					<circle style="fill:#C2C4C6;" cx="355.905" cy="74.646" r="30.045"/>
					<path style="fill:#B3B5B8;" d="M355.905,104.916c-16.691,0-30.27-13.579-30.27-30.27c0-16.691,13.579-30.271,30.27-30.271
						c16.691,0,30.27,13.579,30.27,30.271C386.176,91.337,372.597,104.916,355.905,104.916z M355.905,44.826
						c-16.443,0-29.819,13.377-29.819,29.82c0,16.442,13.377,29.82,29.819,29.82c16.442,0,29.82-13.377,29.82-29.82
						C385.725,58.203,372.348,44.826,355.905,44.826z"/>
				</g>
				<path style="opacity:0.44;fill:#B3B5B8;" d="M355.905,99.153c-13.513,0-24.507-10.994-24.507-24.507
					c0-13.513,10.994-24.507,24.507-24.507c13.513,0,24.507,10.994,24.507,24.507C380.412,88.159,369.418,99.153,355.905,99.153z
					 M355.905,50.504c-13.312,0-24.142,10.83-24.142,24.142c0,13.312,10.83,24.142,24.142,24.142s24.142-10.83,24.142-24.142
					C380.047,61.334,369.217,50.504,355.905,50.504z"/>
				<path style="opacity:0.44;fill:#B3B5B8;" d="M355.905,90.193c-8.658,0-15.702-7.044-15.702-15.701
					c0-8.658,7.044-15.702,15.702-15.702c8.658,0,15.702,7.044,15.702,15.702C371.607,83.149,364.563,90.193,355.905,90.193z
					 M355.905,59.023c-8.529,0-15.468,6.939-15.468,15.468c0,8.529,6.939,15.468,15.468,15.468c8.529,0,15.468-6.939,15.468-15.468
					C371.373,65.962,364.435,59.023,355.905,59.023z"/>
				<path style="opacity:0.86;fill:#FFFFFF;" d="M348.893,74.372c-0.297-1.241-0.259-2.524-0.411-3.786
					c-0.048-0.396-0.557-0.535-0.875-0.503c-0.438,0.045-0.901,0.317-1.125,0.705c-0.329,0.569-0.53,1.192-0.672,1.835
					c0.002-0.039,0.003-0.078,0.006-0.117c0.156-2.569,0.741-5.091,1.597-7.514c0.156-0.442-0.085-0.87-0.549-0.938
					c-0.508-0.074-1.055,0.234-1.319,0.665c-2.7,4.404-3.49,9.474-3.571,14.55c-0.26-1-0.47-2.014-0.647-3.021
					c-0.531-3.028-0.812-6.106-0.53-9.176c0.129-1.397,0.372-2.783,0.763-4.129c0.132-0.357,0.254-0.718,0.351-1.088
					c0.117-0.451-0.112-0.852-0.606-0.865c-0.495-0.013-1.03,0.362-1.188,0.832c-0.546,1.912-1.609,3.628-2.208,5.525
					c-0.629,1.992-1.159,4.026-1.442,6.098c-0.342,2.504-0.239,5.058,0.149,7.566c-0.243-0.777-0.456-1.564-0.64-2.355
					c-0.998-4.291-1.118-8.745-0.338-13.082c0.438-2.435,1.213-4.77,2.158-7.052c0.165-0.368-0.097-0.743-0.467-0.797
					c-0.407-0.059-0.931,0.189-1.121,0.565c-0.113,0.224-0.222,0.451-0.329,0.679c-0.149,0.256-0.326,0.509-0.5,0.747
					c-0.336,0.462-0.643,0.931-0.933,1.424c-0.674,1.145-1.315,2.313-1.848,3.532c-1.088,2.484-1.64,5.209-1.905,7.897
					c-0.324,3.283-0.232,6.562,0.334,9.771c-0.403-1.449-0.712-2.923-0.921-4.414c-0.747-5.346-0.245-10.946,1.864-15.948
					c0.564-1.338,1.229-2.572,2.065-3.829c0.384-0.578,0.778-1.155,1.226-1.689c0.475-0.567,0.916-1.167,1.487-1.774
					c0.31-0.33-0.075-0.625-0.41-0.402c-0.297,0.198-0.589,0.402-0.875,0.616c-0.302,0.225-0.641,0.444-0.908,0.699
					c-0.516,0.491-1.007,1.008-1.48,1.54c-0.971,1.092-1.717,2.209-2.412,3.526c-1.374,2.604-2.224,5.404-2.68,8.308
					c-0.872,5.562-0.234,11.458,1.721,16.733c1.372,3.703,3.559,7.133,6.389,9.894c0,0.001,0.001,0.001,0.001,0.002
					c0,0,0.001,0,0.001,0c0.045,0.044,0.089,0.089,0.134,0.133c0.301,0.289,0.904,0.022,1.149-0.194
					c0.285-0.251,0.521-0.673,0.287-1.039c-0.663-1.038-1.247-2.086-1.752-3.21c-0.507-1.13-0.968-2.28-1.375-3.449
					c-0.812-2.331-1.438-4.749-1.787-7.194c-0.356-2.491-0.358-5.024-0.194-7.532c0.122-1.879,0.369-3.774,0.831-5.609
					c-0.197,1.407-0.303,2.823-0.32,4.231c-0.055,4.581,0.825,9.163,2.662,13.364c1.047,2.394,2.355,4.717,4.008,6.749
					c0.325,0.399,0.891,0.335,1.296,0.102c0.363-0.209,0.883-0.743,0.693-1.222c-1.403-3.541-2.622-7.18-3.156-10.965
					c-0.274-1.947-0.377-3.916-0.189-5.875c0.085-0.884,0.225-1.758,0.402-2.624c0.005,0.153,0.005,0.307,0.012,0.46
					c0.144,3.092,0.596,6.244,1.45,9.222c0.469,1.637,1.099,3.235,1.958,4.708c0.212,0.363,0.785,0.308,1.104,0.169
					c0.366-0.16,0.822-0.576,0.805-1.014c-0.084-2.259-0.172-4.553-0.106-6.835c0.24,1.143,0.629,2.24,1.164,3.28
					c0.205,0.398,0.857,0.323,1.182,0.181c0.408-0.178,0.856-0.61,0.863-1.086c0.021-1.507,0.116-3.011,0.28-4.508
					C348.188,75.8,349.066,75.092,348.893,74.372z"/>
				<path style="opacity:0.86;fill:#FFFFFF;" d="M362.846,74.372c0.297-1.241,0.259-2.524,0.411-3.786
					c0.048-0.396,0.557-0.535,0.875-0.503c0.438,0.045,0.901,0.317,1.125,0.705c0.329,0.569,0.53,1.192,0.672,1.835
					c-0.002-0.039-0.003-0.078-0.006-0.117c-0.156-2.569-0.741-5.091-1.597-7.514c-0.156-0.442,0.085-0.87,0.549-0.938
					c0.508-0.074,1.055,0.234,1.319,0.665c2.7,4.404,3.49,9.474,3.572,14.55c0.26-1,0.47-2.014,0.646-3.021
					c0.531-3.028,0.812-6.106,0.53-9.176c-0.129-1.397-0.372-2.783-0.763-4.129c-0.131-0.357-0.254-0.718-0.351-1.088
					c-0.117-0.451,0.112-0.852,0.606-0.865c0.495-0.013,1.03,0.362,1.188,0.832c0.546,1.912,1.609,3.628,2.208,5.525
					c0.629,1.992,1.159,4.026,1.442,6.098c0.342,2.504,0.238,5.058-0.149,7.566c0.243-0.777,0.456-1.564,0.64-2.355
					c0.998-4.291,1.118-8.745,0.338-13.082c-0.438-2.435-1.213-4.77-2.159-7.052c-0.165-0.368,0.097-0.743,0.467-0.797
					c0.407-0.059,0.931,0.189,1.121,0.565c0.113,0.224,0.222,0.451,0.329,0.679c0.149,0.256,0.326,0.509,0.5,0.747
					c0.336,0.462,0.643,0.931,0.933,1.424c0.674,1.145,1.315,2.313,1.848,3.532c1.088,2.484,1.64,5.209,1.906,7.897
					c0.324,3.283,0.232,6.562-0.333,9.771c0.403-1.449,0.712-2.923,0.921-4.414c0.747-5.346,0.245-10.946-1.864-15.948
					c-0.564-1.338-1.229-2.572-2.065-3.829c-0.385-0.578-0.778-1.155-1.225-1.689c-0.475-0.567-0.916-1.167-1.487-1.774
					c-0.31-0.33,0.075-0.625,0.41-0.402c0.297,0.198,0.589,0.402,0.875,0.616c0.302,0.225,0.641,0.444,0.908,0.699
					c0.516,0.491,1.007,1.008,1.48,1.54c0.971,1.092,1.717,2.209,2.412,3.526c1.374,2.604,2.224,5.404,2.68,8.308
					c0.872,5.562,0.234,11.458-1.721,16.733c-1.372,3.703-3.56,7.133-6.389,9.894c0,0.001-0.001,0.001-0.001,0.002c0,0,0,0-0.001,0
					c-0.045,0.044-0.089,0.089-0.134,0.133c-0.301,0.289-0.904,0.022-1.149-0.194c-0.285-0.251-0.522-0.673-0.287-1.039
					c0.663-1.038,1.248-2.086,1.752-3.21c0.507-1.13,0.968-2.28,1.375-3.449c0.812-2.331,1.438-4.749,1.787-7.194
					c0.356-2.491,0.358-5.024,0.194-7.532c-0.122-1.879-0.369-3.774-0.83-5.609c0.197,1.407,0.303,2.823,0.32,4.231
					c0.055,4.581-0.825,9.163-2.662,13.364c-1.047,2.394-2.355,4.717-4.007,6.749c-0.325,0.399-0.891,0.335-1.296,0.102
					c-0.363-0.209-0.883-0.743-0.693-1.222c1.403-3.541,2.623-7.18,3.156-10.965c0.274-1.947,0.377-3.916,0.189-5.875
					c-0.085-0.884-0.224-1.758-0.402-2.624c-0.005,0.153-0.004,0.307-0.012,0.46c-0.144,3.092-0.596,6.244-1.45,9.222
					c-0.469,1.637-1.099,3.235-1.958,4.708c-0.212,0.363-0.785,0.308-1.104,0.169c-0.366-0.16-0.822-0.576-0.805-1.014
					c0.084-2.259,0.172-4.553,0.106-6.835c-0.24,1.143-0.629,2.24-1.164,3.28c-0.205,0.398-0.857,0.323-1.182,0.181
					c-0.408-0.178-0.856-0.61-0.863-1.086c-0.021-1.507-0.116-3.011-0.28-4.508C363.552,75.8,362.674,75.092,362.846,74.372z"/>
			</g>
			<g>
				<path style="fill:#C83F36;" d="M361.65,74.284c0,3.74-3.032,6.773-6.773,6.773c-3.741,0-6.773-3.032-6.773-6.773
					c0-3.741,3.032-6.773,6.773-6.773C358.618,67.511,361.65,70.544,361.65,74.284z"/>
				<path style="fill:#810913;" d="M354.878,81.215c-3.822,0-6.931-3.109-6.931-6.931c0-3.821,3.109-6.93,6.931-6.93
					c3.821,0,6.931,3.109,6.931,6.93C361.808,78.106,358.699,81.215,354.878,81.215z M354.878,67.669
					c-3.647,0-6.615,2.967-6.615,6.615c0,3.647,2.968,6.615,6.615,6.615s6.615-2.968,6.615-6.615
					C361.492,70.636,358.525,67.669,354.878,67.669z"/>
			</g>
			<g>
				<path style="fill:#C83F36;" d="M361.65,74.284c0,3.74-3.032,6.773-6.773,6.773c-3.741,0-6.773-3.032-6.773-6.773
					c0-3.741,3.032-6.773,6.773-6.773C358.618,67.511,361.65,70.544,361.65,74.284z"/>
				<path style="fill:#810913;" d="M354.878,81.215c-3.822,0-6.931-3.109-6.931-6.931c0-3.821,3.109-6.93,6.931-6.93
					c3.821,0,6.931,3.109,6.931,6.93C361.808,78.106,358.699,81.215,354.878,81.215z M354.878,67.669
					c-3.647,0-6.615,2.967-6.615,6.615c0,3.647,2.968,6.615,6.615,6.615s6.615-2.968,6.615-6.615
					C361.492,70.636,358.525,67.669,354.878,67.669z"/>
			</g>
			<path style="fill:#C83F36;" d="M357.572,72.866c0,1.87-1.516,3.386-3.386,3.386c-1.87,0-3.386-1.516-3.386-3.386
				s1.516-3.386,3.386-3.386C356.056,69.48,357.572,70.996,357.572,72.866z"/>
		</g>
	</g>
</g>
</svg>
