<svg version="1.1" id="Layer_1" xmlns="http://www.w3.org/2000/svg" xmlns:xlink="http://www.w3.org/1999/xlink" viewBox="0 0 512 512" xml:space="preserve" width="24px" height="24px" fill="#000000"><g id="SVGRepo_bgCarrier" stroke-width="0"></g><g id="SVGRepo_tracerCarrier" stroke-linecap="round" stroke-linejoin="round"></g><g id="SVGRepo_iconCarrier"> <rect x="8.17" y="14.979" style="fill:#FFCFB2;" width="89.949" height="32.681"></rect> <g> <path style="fill:#169B62;" d="M438.468,467.064v32.681c0,4.512,3.658,8.17,8.17,8.17c4.512,0,8.17-3.658,8.17-8.17l-0.073-19.953 L438.468,467.064z"></path> <path style="fill:#169B62;" d="M400.34,449.619V482.3c0,4.512,3.658,8.17,8.17,8.17c4.512,0,8.17-3.658,8.17-8.17v-32.681H400.34z"></path> <path style="fill:#169B62;" d="M57.191,499.745c0,4.512,3.658,8.17,8.17,8.17s8.17-3.658,8.17-8.17v-32.681l-16.343,12.724 L57.191,499.745z"></path> <path style="fill:#169B62;" d="M95.319,482.3c0,4.512,3.658,8.17,8.17,8.17c4.512,0,8.17-3.658,8.17-8.17v-32.681h-16.34V482.3z"></path> <path style="fill:#169B62;" d="M247.83,499.745c0,4.512,3.658,8.17,8.17,8.17s8.17-3.658,8.17-8.17v-32.681h-16.34V499.745z"></path> <path style="fill:#169B62;" d="M285.957,482.3c0,4.512,3.658,8.17,8.17,8.17c4.512,0,8.17-3.658,8.17-8.17v-32.681h-16.34V482.3z"></path> <path style="fill:#169B62;" d="M209.702,482.3c0,4.512,3.658,8.17,8.17,8.17s8.17-3.658,8.17-8.17v-32.681h-16.34V482.3z"></path> <path style="fill:#169B62;" d="M171.549,464.855c0,4.512,3.658,8.17,8.17,8.17c4.512,0,8.17-3.658,8.17-8.17v-32.681l-16.34,5.247 V464.855z"></path> <path style="fill:#169B62;" d="M133.447,464.855c0,4.512,3.658,8.17,8.17,8.17s8.17-3.658,8.17-8.17V437.42l-16.34-5.246V464.855z"></path> <path style="fill:#169B62;" d="M324.085,464.855c0,4.512,3.658,8.17,8.17,8.17s8.17-3.658,8.17-8.17l0.025-27.436l-16.366-5.245 V464.855z"></path> <path style="fill:#169B62;" d="M362.213,437.419v27.437c0,4.512,3.658,8.17,8.17,8.17s8.17-3.658,8.17-8.17v-32.681 L362.213,437.419z"></path> </g> <g> <path style="fill:#FFB88B;" d="M8.17,58.553c-4.512,0-8.17-3.658-8.17-8.17V12.255c0-4.512,3.658-8.17,8.17-8.17 s8.17,3.658,8.17,8.17v38.128C16.34,54.895,12.682,58.553,8.17,58.553z"></path> <rect x="413.881" y="14.979" style="fill:#FFB88B;" width="89.949" height="32.681"></rect> </g> <polygon style="fill:#86A5A6;" points="426.943,4.085 389.374,80.34 454.736,47.66 454.736,4.085 "></polygon> <g> <polygon style="fill:#AFC3C3;" points="57.189,4.085 57.189,47.66 245.101,80.34 426.943,47.66 426.943,4.085 "></polygon> <polygon style="fill:#AFC3C3;" points="454.736,47.66 454.736,479.792 426.943,467.064 345.799,249.867 426.943,47.66 "></polygon> </g> <path style="fill:#D7E1E1;" d="M362.213,407.663h-21.775c-0.022,0,0.013,29.756,0.013,29.756L256,476.048l-84.451-38.627v-29.758 h-21.762v29.757l-92.598,42.367l0.07-432.128c0.011,0,369.684,0,369.684,0v419.404l-64.73-29.645V407.663z"></path> <g> <path style="fill:#0B4E31;" d="M274.684,344.87c-6.975-22.066-10.512-45.115-10.512-68.503v-46.449h-16.34v46.449 c0,25.062,3.792,49.767,11.272,73.43c1.101,3.483,4.319,5.709,7.788,5.709c0.816,0,1.646-0.123,2.465-0.382 C273.657,353.764,276.043,349.173,274.684,344.87z"></path> <path style="fill:#0B4E31;" d="M286.383,116.501c-4.815-1.285-9.663-1.547-14.303-0.893l-16.079,114.307l48.248-54.74 c3.519-4.031,6.209-8.9,7.68-14.423C317.103,141.48,305.665,121.675,286.383,116.501z"></path> </g> <path style="fill:#10744A;" d="M274.814,116.501c11.929,5.174,19.009,24.979,15.807,44.25c-0.915,5.523-2.582,10.393-4.76,14.423 l-29.859,54.74l-21.787-72.617l21.787-35.263c4.728-3.388,10.24-5.621,16.079-6.427 C272.984,115.804,273.899,116.109,274.814,116.501z"></path> <path style="fill:#169B62;" d="M256.001,122.037v107.879l-48.242-54.74c-3.522-4.032-6.216-8.9-7.69-14.424 c-5.169-19.275,6.27-39.079,25.546-44.248C236.48,113.591,247.51,115.958,256.001,122.037z"></path> <path style="fill:#0B4E31;" d="M352.186,297.257c2.855-4.085,4.758-8.55,5.731-13.136l-101.914-54.204l34.937,64.06 c2.584,4.685,6.24,8.879,10.926,12.15C318.207,317.582,340.728,313.607,352.186,297.257z"></path> <path style="fill:#10744A;" d="M356.143,286.387c-8.943,9.439-29.974,9.319-46.987-0.281c-4.877-2.748-8.883-5.981-11.925-9.407 l-41.227-46.78l75.689,4.363l25.685,32.534c1.566,5.601,1.78,11.545,0.54,17.308C357.424,284.905,356.824,285.66,356.143,286.387z"></path> <path style="fill:#169B62;" d="M357.375,266.814l-101.374-36.897l67.939-26.611c4.993-1.93,10.489-2.796,16.185-2.293 c19.881,1.735,34.577,19.258,32.842,39.139C371.988,251.359,365.992,260.914,357.375,266.814z"></path> <path style="fill:#0B4E31;" d="M159.816,297.257c-2.855-4.085-4.758-8.55-5.731-13.136l101.914-54.204l-34.937,64.06 c-2.584,4.685-6.24,8.879-10.926,12.15C193.795,317.582,171.273,313.607,159.816,297.257z"></path> <path style="fill:#10744A;" d="M155.859,286.387c8.943,9.439,29.974,9.319,46.987-0.281c4.877-2.748,8.883-5.981,11.925-9.407 l41.227-46.78l-75.689,4.363l-25.685,32.534c-1.566,5.601-1.78,11.545-0.54,17.308C154.578,284.905,155.177,285.66,155.859,286.387z "></path> <path style="fill:#169B62;" d="M154.627,266.814l101.374-36.897l-67.939-26.611c-4.993-1.93-10.489-2.796-16.185-2.293 c-19.881,1.735-34.577,19.258-32.842,39.139C140.015,251.359,146.01,260.914,154.627,266.814z"></path> <g> <circle style="fill:#AFC3C3;" cx="98.043" cy="91.234" r="8.17"></circle> <circle style="fill:#AFC3C3;" cx="130.723" cy="123.915" r="8.17"></circle> <circle style="fill:#AFC3C3;" cx="381.277" cy="347.234" r="8.17"></circle> </g> <path style="fill:#FF883E;" d="M503.83,58.553c-4.512,0-8.17-3.658-8.17-8.17V12.255c0-4.512,3.658-8.17,8.17-8.17 s8.17,3.658,8.17,8.17v38.128C512,54.895,508.342,58.553,503.83,58.553z"></path> </g></svg>